<?xml version="1.0" encoding="UTF-8" standalone="no"?>
<!-- Created with Inkscape (http://www.inkscape.org/) -->

<svg
   xmlns:dc="http://purl.org/dc/elements/1.1/"
   xmlns:cc="http://creativecommons.org/ns#"
   xmlns:rdf="http://www.w3.org/1999/02/22-rdf-syntax-ns#"
   xmlns:svg="http://www.w3.org/2000/svg"
   xmlns="http://www.w3.org/2000/svg"
   xmlns:sodipodi="http://sodipodi.sourceforge.net/DTD/sodipodi-0.dtd"
   xmlns:inkscape="http://www.inkscape.org/namespaces/inkscape"
   width="30.147087mm"
   height="31.447618mm"
   viewBox="0 0 30.147087 31.447618"
   version="1.1"
   id="svg1528"
   inkscape:version="0.92.0 r15299"
   sodipodi:docname="pc.svg">
  <defs
     id="defs1522" />
  <sodipodi:namedview
     id="base"
     pagecolor="#ffffff"
     bordercolor="#666666"
     borderopacity="1.0"
     inkscape:pageopacity="0.0"
     inkscape:pageshadow="2"
     inkscape:zoom="1.4"
     inkscape:cx="-30.685826"
     inkscape:cy="-134.43548"
     inkscape:document-units="mm"
     inkscape:current-layer="layer1"
     showgrid="false"
     fit-margin-top="0"
     fit-margin-left="0"
     fit-margin-right="0"
     fit-margin-bottom="0"
     inkscape:window-width="2560"
     inkscape:window-height="1017"
     inkscape:window-x="-5"
     inkscape:window-y="-5"
     inkscape:window-maximized="1" />
  <metadata
     id="metadata1525">
    <rdf:RDF>
      <cc:Work
         rdf:about="">
        <dc:format>image/svg+xml</dc:format>
        <dc:type
           rdf:resource="http://purl.org/dc/dcmitype/StillImage" />
        <dc:title></dc:title>
      </cc:Work>
    </rdf:RDF>
  </metadata>
  <g
     inkscape:label="Layer 1"
     inkscape:groupmode="layer"
     id="layer1"
     transform="translate(-95.463869,-66.774703)">
    <g
       id="g20"
       style="fill:#f4f6f8;stroke:#4d4d4d;stroke-linecap:round;stroke-linejoin:round"
       transform="matrix(0.68364389,0,0,0.68364389,94.129959,66.091059)">
      <path
         id="path22"
         inkscape:connector-curvature="0"
         d="m 7.75,36.5 c -1.25,0 -2,0.3 -2.5,1.5 l -2.5,6 C 1.9,46 3,46.5 4,46.5 h 40 c 1,0 2.1,-0.5 1.25,-2.5 l -2.5,-6 c -0.5,-1.2 -1.25,-1.5 -2.5,-1.5 z"
         style="stroke:#4d4d4d" />
      <path
         id="path24"
         inkscape:connector-curvature="0"
         d="m 14.5,29.5 -1,3 c -0.5,1.5 0,2 1.5,2 h 18 c 1.5,0 2,-0.5 1.5,-2 l -1,-3 z"
         style="stroke:#4d4d4d" />
      <path
         id="path26"
         inkscape:connector-curvature="0"
         d="m 8,38.5 -2,6 h 36 l -2,-6 z"
         style="stroke:#4d4d4d" />
      <path
         id="path28"
         inkscape:connector-curvature="0"
         d="m 37.5,38.5 v 6 m -3,-6 v 6 m -3,-6 v 6 m -3,-6 v 3 m -3,-3 v 3 m -3,-3 v 3 m -3,-3 v 3 m -3,-3 v 3 m -3,-3 v 6 m -3,-6 v 6 M 7,41.5 h 34"
         style="stroke:#4d4d4d" />
      <rect
         id="rect30"
         y="28.5"
         x="19.5"
         height="4"
         width="9"
         style="stroke:#4d4d4d" />
      <rect
         id="rect32"
         rx="2"
         ry="2"
         height="29"
         width="39"
         y="1.5"
         x="4.5"
         style="stroke:#4d4d4d" />
      <rect
         id="rect34"
         rx="1"
         ry="1"
         height="22"
         width="33"
         y="4.5"
         x="7.5"
         style="stroke:#4d4d4d" />
    </g>
  </g>
</svg>
