<?xml version="1.0" encoding="UTF-8" standalone="no"?>
<!-- Created with Inkscape (http://www.inkscape.org/) -->

<svg
   xmlns:dc="http://purl.org/dc/elements/1.1/"
   xmlns:cc="http://creativecommons.org/ns#"
   xmlns:rdf="http://www.w3.org/1999/02/22-rdf-syntax-ns#"
   xmlns:svg="http://www.w3.org/2000/svg"
   xmlns="http://www.w3.org/2000/svg"
   xmlns:xlink="http://www.w3.org/1999/xlink"
   xmlns:sodipodi="http://sodipodi.sourceforge.net/DTD/sodipodi-0.dtd"
   xmlns:inkscape="http://www.inkscape.org/namespaces/inkscape"
   width="37.305233mm"
   height="31.628351mm"
   viewBox="0 0 37.305233 31.628351"
   version="1.1"
   id="svg907"
   sodipodi:docname="server.svg"
   inkscape:version="0.92.0 r15299">
  <defs
     id="defs901" />
  <sodipodi:namedview
     id="base"
     pagecolor="#ffffff"
     bordercolor="#666666"
     borderopacity="1.0"
     inkscape:pageopacity="0.0"
     inkscape:pageshadow="2"
     inkscape:zoom="3.959798"
     inkscape:cx="35.064001"
     inkscape:cy="41.231129"
     inkscape:document-units="mm"
     inkscape:current-layer="layer1"
     showgrid="false"
     inkscape:window-width="2560"
     inkscape:window-height="1017"
     inkscape:window-x="-5"
     inkscape:window-y="-5"
     inkscape:window-maximized="1"
     fit-margin-top="0"
     fit-margin-left="0"
     fit-margin-right="0"
     fit-margin-bottom="0" />
  <metadata
     id="metadata904">
    <rdf:RDF>
      <cc:Work
         rdf:about="">
        <dc:format>image/svg+xml</dc:format>
        <dc:type
           rdf:resource="http://purl.org/dc/dcmitype/StillImage" />
        <dc:title></dc:title>
      </cc:Work>
    </rdf:RDF>
  </metadata>
  <g
     inkscape:label="Layer 1"
     inkscape:groupmode="layer"
     id="layer1"
     transform="translate(-90.618714,-39.546327)">
    <g
       id="g96"
       style="fill:#f4f6f8;stroke:#4d4d4d;stroke-linecap:round;stroke-linejoin:round"
       transform="matrix(0.81098336,0,0,0.81098336,89.807731,35.49141)">
      <path
         id="path98"
         inkscape:connector-curvature="0"
         d="m 22.5,27.5 v 10 h -8 v 2 h 15 v -2 h -5 v -10 z"
         style="stroke:#4d4d4d" />
      <path
         id="path100"
         inkscape:connector-curvature="0"
         d="m 25.5,38.5 a 2,2 0 1 1 -4,0 2,2 0 1 1 4,0 z"
         style="stroke:#4d4d4d" />
      <path
         id="path102"
         inkscape:connector-curvature="0"
         d="m 4.5,11.5 -3,4 v 28 h 16 v -28 l -3,-4 z"
         style="stroke:#4d4d4d" />
      <path
         id="path104"
         inkscape:connector-curvature="0"
         d="m 3.5,17.5 v 15 h 12 v -15 z"
         style="stroke:#4d4d4d" />
      <path
         id="path106"
         inkscape:connector-curvature="0"
         d="m 3.5,30.5 h 12 m -12,-3 h 12 m -12,-2 h 12 m -12,-3 h 12 m -12,-2 h 12"
         style="stroke:#4d4d4d" />
      <path
         id="path108"
         inkscape:connector-curvature="0"
         d="m 13.5,40.5 v -5 m -2,5 v -5 m -2,5 v -5 m -2,5 v -5 m -2,5 v -5"
         style="stroke:#4d4d4d" />
      <use
         id="use110"
         xlink:href="#client"
         transform="translate(-7,-11)"
         height="1052.3622"
         width="744.09448"
         y="0"
         x="0"
         style="stroke:#4d4d4d" />
      <g
         id="client"
         style="stroke:#4d4d4d">
        <path
           id="path113"
           inkscape:connector-curvature="0"
           d="m 27.5,35.5 v 4 c 0,0.625 0.375,1 1,1 h 17 c 0.625,0 1,-0.375 1,-1 v -4 l -3,-5 h -13 z"
           style="stroke:#4d4d4d" />
        <path
           id="path115"
           inkscape:connector-curvature="0"
           d="m 29.5,36.5 v 4 h 15 v -4 z"
           style="stroke:#4d4d4d" />
        <path
           id="path117"
           inkscape:connector-curvature="0"
           d="m 42.5,38.5 h -5"
           style="stroke:#4d4d4d" />
        <path
           id="path119"
           inkscape:connector-curvature="0"
           d="m 32.5,30.5 -1,2 c -0.5,1 -0.5,2 1.5,2 h 8 c 2,0 2,-1 1.5,-2 l -1,-2 z"
           style="stroke:#4d4d4d" />
        <rect
           id="rect121"
           y="28.5"
           x="34.5"
           height="4"
           width="5"
           style="stroke:#4d4d4d" />
        <rect
           id="rect123"
           rx="1"
           ry="1"
           height="14"
           width="19"
           y="16.5"
           x="27.5"
           style="stroke:#4d4d4d" />
        <rect
           id="rect125"
           y="18.5"
           x="29.5"
           height="10"
           width="15"
           style="stroke:#4d4d4d" />
      </g>
    </g>
  </g>
</svg>
