<?xml version="1.0" encoding="UTF-8" standalone="no"?>
<!-- Created with Inkscape (http://www.inkscape.org/) -->

<svg
   xmlns:dc="http://purl.org/dc/elements/1.1/"
   xmlns:cc="http://creativecommons.org/ns#"
   xmlns:rdf="http://www.w3.org/1999/02/22-rdf-syntax-ns#"
   xmlns:svg="http://www.w3.org/2000/svg"
   xmlns="http://www.w3.org/2000/svg"
   xmlns:xlink="http://www.w3.org/1999/xlink"
   xmlns:sodipodi="http://sodipodi.sourceforge.net/DTD/sodipodi-0.dtd"
   xmlns:inkscape="http://www.inkscape.org/namespaces/inkscape"
   version="1.1"
   width="500"
   height="170"
   id="svg4353"
   inkscape:version="0.48.1 "
   sodipodi:docname="wii u hard SVG.svg">
  <sodipodi:namedview
     pagecolor="#ffffff"
     bordercolor="#666666"
     borderopacity="1"
     objecttolerance="10"
     gridtolerance="10"
     guidetolerance="10"
     inkscape:pageopacity="0"
     inkscape:pageshadow="2"
     inkscape:window-width="1024"
     inkscape:window-height="715"
     id="namedview70"
     showgrid="false"
     inkscape:zoom="1"
     inkscape:cx="68.0259"
     inkscape:cy="161.89567"
     inkscape:window-x="-8"
     inkscape:window-y="-8"
     inkscape:window-maximized="1"
     inkscape:current-layer="svg4353" />
  <defs
     id="defs4355">
    <linearGradient
       x1="397.39401"
       y1="506.47574"
       x2="397.39401"
       y2="485.43857"
       id="linearGradient4197"
       xlink:href="#linearGradient4191"
       gradientUnits="userSpaceOnUse"
       gradientTransform="translate(124.16564,-142.2042)" />
    <linearGradient
       id="linearGradient4191">
      <stop
         id="stop4193"
         style="stop-color:#ffffff;stop-opacity:1"
         offset="0" />
      <stop
         id="stop4195"
         style="stop-color:#969696;stop-opacity:1"
         offset="1" />
    </linearGradient>
    <linearGradient
       x1="269.00626"
       y1="544.32874"
       x2="269.00626"
       y2="559.93054"
       id="linearGradient4205"
       xlink:href="#linearGradient4199"
       gradientUnits="userSpaceOnUse" />
    <linearGradient
       id="linearGradient4199">
      <stop
         id="stop4201"
         style="stop-color:#969696;stop-opacity:1"
         offset="0" />
      <stop
         id="stop4203"
         style="stop-color:#ffffff;stop-opacity:1"
         offset="1" />
    </linearGradient>
    <linearGradient
       x1="370.72598"
       y1="464.41489"
       x2="370.72598"
       y2="586.05127"
       id="linearGradient4060"
       xlink:href="#linearGradient4054"
       gradientUnits="userSpaceOnUse"
       gradientTransform="translate(124.16564,-142.2042)" />
    <linearGradient
       id="linearGradient4054">
      <stop
         id="stop4056"
         style="stop-color:#ffffff;stop-opacity:1"
         offset="0" />
      <stop
         id="stop4062"
         style="stop-color:#c8c8c8;stop-opacity:1"
         offset="0.27129418" />
      <stop
         id="stop4064"
         style="stop-color:#c8c8c8;stop-opacity:1"
         offset="0.72855824" />
      <stop
         id="stop4207"
         style="stop-color:#fbfbfb;stop-opacity:1"
         offset="0.96494234" />
      <stop
         id="stop4058"
         style="stop-color:#969696;stop-opacity:1"
         offset="1" />
    </linearGradient>
    <linearGradient
       x1="614.2359"
       y1="519.28577"
       x2="614.2359"
       y2="509.93842"
       id="linearGradient4074"
       xlink:href="#linearGradient4068"
       gradientUnits="userSpaceOnUse" />
    <linearGradient
       id="linearGradient4068">
      <stop
         id="stop4070"
         style="stop-color:#cccccc;stop-opacity:1"
         offset="0" />
      <stop
         id="stop4072"
         style="stop-color:#ffffff;stop-opacity:1"
         offset="1" />
    </linearGradient>
    <linearGradient
       x1="614.2359"
       y1="519.28577"
       x2="614.2359"
       y2="509.93842"
       id="linearGradient4351"
       xlink:href="#linearGradient4068"
       gradientUnits="userSpaceOnUse"
       gradientTransform="translate(124.16564,-142.2042)" />
    <linearGradient
       x1="614.2359"
       y1="519.28577"
       x2="614.2359"
       y2="509.93842"
       id="linearGradient4525"
       xlink:href="#linearGradient4068"
       gradientUnits="userSpaceOnUse"
       gradientTransform="translate(124.16564,-142.2042)" />
    <linearGradient
       x1="370.72598"
       y1="464.41489"
       x2="370.72598"
       y2="586.05127"
       id="linearGradient4527"
       xlink:href="#linearGradient4054"
       gradientUnits="userSpaceOnUse"
       gradientTransform="translate(124.16564,-142.2042)" />
    <linearGradient
       x1="269.00626"
       y1="544.32874"
       x2="269.00626"
       y2="559.93054"
       id="linearGradient4529"
       xlink:href="#linearGradient4199"
       gradientUnits="userSpaceOnUse" />
    <linearGradient
       x1="397.39401"
       y1="506.47574"
       x2="397.39401"
       y2="485.43857"
       id="linearGradient4531"
       xlink:href="#linearGradient4191"
       gradientUnits="userSpaceOnUse"
       gradientTransform="translate(124.16564,-142.2042)" />
    <linearGradient
       inkscape:collect="always"
       xlink:href="#linearGradient4068"
       id="linearGradient3087"
       gradientUnits="userSpaceOnUse"
       gradientTransform="matrix(1.0276201,0,0,1.0276201,-136.65099,-434.97058)"
       x1="614.2359"
       y1="519.28577"
       x2="614.2359"
       y2="509.93842" />
    <linearGradient
       inkscape:collect="always"
       xlink:href="#linearGradient4054"
       id="linearGradient3089"
       gradientUnits="userSpaceOnUse"
       gradientTransform="matrix(1.0276201,0,0,1.0276201,-136.65099,-434.97058)"
       x1="370.72598"
       y1="464.41489"
       x2="370.72598"
       y2="586.05127" />
    <linearGradient
       inkscape:collect="always"
       xlink:href="#linearGradient4199"
       id="linearGradient3091"
       gradientUnits="userSpaceOnUse"
       x1="269.00626"
       y1="544.32874"
       x2="269.00626"
       y2="559.93054"
       gradientTransform="matrix(1.218134,0,0,1.218134,-187.30623,-539.87693)" />
    <linearGradient
       inkscape:collect="always"
       xlink:href="#linearGradient4191"
       id="linearGradient3093"
       gradientUnits="userSpaceOnUse"
       gradientTransform="matrix(1.0276201,0,0,1.0276201,-136.65099,-434.97058)"
       x1="397.39401"
       y1="506.47574"
       x2="397.39401"
       y2="485.43857" />
    <linearGradient
       inkscape:collect="always"
       xlink:href="#linearGradient4054-1"
       id="linearGradient3089-6"
       gradientUnits="userSpaceOnUse"
       gradientTransform="matrix(1.0276201,0,0,1.0276201,-136.65099,-434.97058)"
       x1="370.72598"
       y1="464.41489"
       x2="370.72598"
       y2="586.05127" />
    <linearGradient
       id="linearGradient4054-1">
      <stop
         id="stop4056-3"
         style="stop-color:#ffffff;stop-opacity:1"
         offset="0" />
      <stop
         id="stop4062-8"
         style="stop-color:#c8c8c8;stop-opacity:1"
         offset="0.27129418" />
      <stop
         id="stop4064-9"
         style="stop-color:#c8c8c8;stop-opacity:1"
         offset="0.72855824" />
      <stop
         id="stop4207-3"
         style="stop-color:#fbfbfb;stop-opacity:1"
         offset="0.96494234" />
      <stop
         id="stop4058-4"
         style="stop-color:#969696;stop-opacity:1"
         offset="1" />
    </linearGradient>
  </defs>
  <metadata
     id="metadata4358">
    <rdf:RDF>
      <cc:Work
         rdf:about="">
        <dc:format>image/svg+xml</dc:format>
        <dc:type
           rdf:resource="http://purl.org/dc/dcmitype/StillImage" />
        <dc:title />
      </cc:Work>
    </rdf:RDF>
  </metadata>
  <path
     d="m 490.85208,99.274226 0,-10.380525 c 0,0 9.17849,-0.456562 9.14784,5.255136 0,4.74185 -9.14784,5.125389 -9.14784,5.125389 z"
     id="path4066"
     style="fill:url(#linearGradient3087);fill-opacity:1;stroke:none;display:inline"
     inkscape:connector-curvature="0" />
  <path
     d="M 77.672024,2.7313521 19.707828,40.17526 C 8.0427473,54.890615 5.0000156,81.280064 5.0000156,81.280064 l 182.0493244,0 43.32061,0 103.4685,0 156.35882,0 c 0,0 -3.01062,-26.389449 -14.6757,-41.104804 l -57.99631,-37.4439079 -119.65352,0 -67.50179,0 -46.24291,0 -106.455016,0 z"
     id="path3131"
     style="fill:#dcdcdc;fill-opacity:1;stroke:none;display:inline"
     inkscape:connector-curvature="0" />
  <path
     d="m 30.450661,39.843749 c -20.151774,0 -25.3051447,48.908294 -25.3051447,48.908294 l 0,34.104147 c 0,0 6.9827707,44.41245 25.3051447,44.41245 l 174.663309,0 86.70544,0 174.6633,0 c 18.32238,0 25.30515,-44.41245 25.30515,-44.41245 l 0,-34.104147 c 0,0 -5.15337,-48.908294 -25.30515,-48.908294 l -174.6633,0 -86.70544,0 -174.663309,0 z"
     id="rect3067"
     style="fill:url(#linearGradient3089);fill-opacity:1;fill-rule:nonzero;stroke:none;display:inline"
     inkscape:connector-curvature="0" />
  <path
     d="m 32.169587,39.84375 c -20.15177,0 -25.3051388,48.908285 -25.3051388,48.908285 l 0,19.304155 C 77.121166,82.422925 296.04174,70.190379 490.06893,70.190379 486.55581,56.35496 479.91042,39.843749 468.20164,39.843749 l -174.6633,0 -86.70544,0 z"
     id="rect3067-4"
     style="fill:#ffffff;fill-opacity:1;fill-rule:nonzero;stroke:none;display:inline;opacity:0.3"
     inkscape:connector-curvature="0"
     sodipodi:nodetypes="scccsccs" />
  <path
     d="m 150.07338,132.64791 a 9.6798166,9.6798166 0 1 1 -19.35964,0 9.6798166,9.6798166 0 1 1 19.35964,0 z"
     id="path3977"
     style="fill:url(#linearGradient3091);fill-opacity:1;fill-rule:nonzero;stroke:none;display:inline"
     inkscape:connector-curvature="0" />
  <path
     d="M 259.3247,63.199398 83.210578,67.91229 c -8.341572,2.99394 -6.013807,13.812951 0,15.971415 l 174.973912,2.749182 4.91921,0.04367 177.8733,-2.792814 c 6.01382,-2.158465 8.34157,-12.977476 0,-15.971416 L 264.63484,63.199435 z"
     id="rect3925-4"
     style="fill:url(#linearGradient3093);fill-opacity:1;fill-rule:nonzero;stroke:none;display:inline"
     inkscape:connector-curvature="0"
     sodipodi:nodetypes="ccccccccc" />
  <path
     d="m 85.12227,68.788004 c -8.222656,2.203259 -5.928083,10.164982 0,11.753405 l 172.47961,2.023127 c 1.20404,0.06855 2.59011,0.03206 3.85357,0.03206 l 176.33319,-2.05524 c 5.92809,-1.588423 8.22266,-9.550146 0,-11.753405 L 261.45545,65.31976 c -58.77948,0.862826 -117.55781,2.266339 -176.33318,3.468244 z"
     id="rect3925"
     style="fill:#000000;fill-opacity:1;fill-rule:nonzero;stroke:none;display:inline"
     inkscape:connector-curvature="0"
     sodipodi:nodetypes="cccccccc" />
  <path
     d="m 172.18096,112.6867 c -4.4169,0 -7.28968,3.62377 -7.28968,7.48236 0,11.05763 0,22.11524 0,33.17286 77.31771,0 154.63542,0 231.95312,0 0,-11.05762 0,-22.11523 0,-33.17286 0,-3.85859 -2.87278,-7.48236 -7.28968,-7.48236 l -69.46069,0 -78.45237,0 z m 0,1.02762 69.4607,0 78.45237,0 69.46069,0 c 3.86067,0 6.26206,3.09685 6.26206,6.45474 l 0,31.22772 -229.89788,0 0,-31.22772 c 0,-3.35789 2.40139,-6.45474 6.26206,-6.45474 z"
     id="rect3951"
     style="font-size:medium;font-style:normal;font-variant:normal;font-weight:normal;font-stretch:normal;text-indent:0;text-align:start;text-decoration:none;line-height:normal;letter-spacing:normal;word-spacing:normal;text-transform:none;direction:ltr;block-progression:tb;writing-mode:lr-tb;text-anchor:start;baseline-shift:baseline;opacity:0.50000000000000000;color:#000000;fill:#333333;fill-opacity:1;stroke:none;stroke-width:1;marker:none;visibility:visible;display:inline;overflow:visible;enable-background:accumulate;font-family:Sans;-inkscape-font-specification:Sans"
     inkscape:connector-curvature="0" />
  <path
     style="font-size:medium;font-style:normal;font-variant:normal;font-weight:normal;font-stretch:normal;text-indent:0;text-align:start;text-decoration:none;line-height:normal;letter-spacing:normal;word-spacing:normal;text-transform:none;direction:ltr;block-progression:tb;writing-mode:lr-tb;text-anchor:start;baseline-shift:baseline;color:#000000;fill:#1a1a1a;fill-opacity:1;fill-rule:nonzero;stroke:none;stroke-width:0.91787428000000004;marker:none;visibility:visible;display:inline;overflow:visible;enable-background:accumulate;font-family:Sans;-inkscape-font-specification:Sans"
     d="m 140.53116,127.45031 c -2.97783,0 -5.60894,2.62744 -5.60527,5.60527 0.003,2.97307 2.6322,5.60527 5.60527,5.60527 2.97307,0 5.60161,-2.6322 5.60527,-5.60527 0.003,-2.97783 -2.62744,-5.60527 -5.60527,-5.60527 z"
     id="path3975-1"
     inkscape:connector-curvature="0"
     sodipodi:nodetypes="scscs" />
  <path
     d="m 144.22141,133.06013 a 3.6902531,3.6902531 0 0 1 -7.3805,0 3.6902531,3.6902531 0 1 1 7.3805,0 z"
     id="path3975"
     style="fill:#800000;fill-opacity:1;fill-rule:nonzero;stroke:none;display:inline"
     inkscape:connector-curvature="0" />
  <path
     style="font-size:medium;font-style:normal;font-variant:normal;font-weight:normal;font-stretch:normal;text-indent:0;text-align:start;text-decoration:none;line-height:normal;letter-spacing:normal;word-spacing:normal;text-transform:none;direction:ltr;block-progression:tb;writing-mode:lr-tb;text-anchor:start;baseline-shift:baseline;color:#000000;fill:#666666;fill-opacity:1;stroke:none;stroke-width:1.02762007999999990;marker:none;visibility:visible;display:inline;overflow:visible;enable-background:accumulate;font-family:Sans;-inkscape-font-specification:Sans"
     d="m 42.75,117.59375 c -4.082227,0 -8.113801,1.67556 -11,4.5625 -2.886199,2.88694 -4.563552,6.91777 -4.5625,11 0.0011,4.08088 1.676507,8.11475 4.5625,11 2.885993,2.88525 6.919116,4.5625 11,4.5625 4.080884,0 8.114007,-1.67725 11,-4.5625 2.885993,-2.88525 4.561448,-6.91912 4.5625,-11 0.0011,-4.08223 -1.645051,-8.11306 -4.53125,-11 -2.886199,-2.88694 -6.949023,-4.5625 -11.03125,-4.5625 z m 0,1.03125 c 3.800156,0 7.594481,1.56254 10.28125,4.25 2.686769,2.68746 4.28223,6.48109 4.28125,10.28125 -9.79e-4,3.79891 -1.594667,7.59536 -4.28125,10.28125 -2.686583,2.68589 -6.482337,4.25 -10.28125,4.25 -3.798913,0 -7.594667,-1.56411 -10.28125,-4.25 -2.671964,-2.67127 -4.232038,-6.44061 -4.25,-10.21875 l 0,-0.0625 c -9.8e-4,-3.80016 1.563231,-7.59379 4.25,-10.28125 2.686769,-2.68746 6.481094,-4.25 10.28125,-4.25 z"
     id="path3979"
     inkscape:connector-curvature="0" />
  <path
     d="m 44.1621,113.40982 a 1.573313,1.573313 0 1 1 -3.146626,0 1.573313,1.573313 0 1 1 3.146626,0 z"
     id="path3981"
     style="fill:#00c3ff;fill-opacity:1;fill-rule:nonzero;stroke:#2271a6;stroke-width:0.73294097;stroke-opacity:1;display:inline"
     inkscape:connector-curvature="0" />
  <path
     d="m 42.833874,70.623715 3.59667,4.500442 -7.19334,0 z"
     id="rect3996"
     style="fill:#666666;fill-opacity:1;stroke:none;display:inline"
     inkscape:connector-curvature="0" />
  <path
     d="m 39.237204,76.404058 7.19334,0 0,1.192779 -7.19334,0 z"
     id="rect3999"
     style="fill:#808080;fill-opacity:1;fill-rule:nonzero;stroke:none;display:inline"
     inkscape:connector-curvature="0" />
  <path
     style="font-size:medium;font-style:normal;font-variant:normal;font-weight:normal;font-stretch:normal;text-indent:0;text-align:start;text-decoration:none;line-height:normal;letter-spacing:normal;word-spacing:normal;text-transform:none;direction:ltr;block-progression:tb;writing-mode:lr-tb;text-anchor:start;baseline-shift:baseline;color:#000000;fill:#666666;fill-opacity:1;stroke:none;stroke-width:1.02762007999999990;marker:none;visibility:visible;display:inline;overflow:visible;enable-background:accumulate;font-family:Sans;-inkscape-font-specification:Sans"
     d="m 33.84375,66.125 c -8.388726,0 -8.268239,16.71875 0,16.71875 l 3.9375,0 10.21875,0 3.9375,0 c 8.268238,0 8.388725,-16.71875 0,-16.71875 l -3.9375,0 -10.21875,0 -3.9375,0 z m 0,1.03125 3.9375,0 10.21875,0 3.9375,0 c 6.989609,0 6.844538,14.65625 0,14.65625 l -3.9375,0 -10.21875,0 -3.9375,0 c -6.844539,0 -6.98961,-14.65625 0,-14.65625 z"
     id="rect4004"
     inkscape:connector-curvature="0" />
  <rect
     width="1.2349933"
     height="8.2071066"
     x="42.315857"
     y="125.90678"
     id="rect4026"
     style="fill:#666666;fill-opacity:1;fill-rule:nonzero;stroke:none;display:inline" />
  <path
     d="m 45.430444,127.65142 0,1.44509 c 1.355883,0.85809 2.247919,2.34901 2.247919,4.07837 0,2.68567 -2.163408,4.84908 -4.849083,4.84908 -2.685674,0 -4.881195,-2.16341 -4.881195,-4.84908 0,-1.70396 0.883774,-3.1819 2.215806,-4.04626 l -0.192679,0 0,-1.34875 c -1.935841,1.02285 -3.243426,3.05324 -3.243426,5.39501 0,3.36976 2.731733,6.10149 6.101494,6.10149 3.369762,0 6.101495,-2.73173 6.101495,-6.10149 0,-2.44201 -1.42793,-4.54841 -3.500331,-5.52346 z"
     id="path4030"
     style="fill:#666666;fill-opacity:1;fill-rule:nonzero;stroke:none;display:inline"
     inkscape:connector-curvature="0" />
  <path
     d="m 260.76273,113.83659 0,1.66988 40.21022,0 0,-1.66988 -40.21022,0 z"
     id="path4076"
     style="font-size:medium;font-style:normal;font-variant:normal;font-weight:normal;font-stretch:normal;text-indent:0;text-align:start;text-decoration:none;line-height:normal;letter-spacing:normal;word-spacing:normal;text-transform:none;direction:ltr;block-progression:tb;writing-mode:lr-tb;text-anchor:start;baseline-shift:baseline;color:#000000;fill:#808080;fill-opacity:1;fill-rule:nonzero;stroke:none;stroke-width:1px;marker:none;visibility:visible;display:inline;overflow:visible;enable-background:accumulate;font-family:Sans;-inkscape-font-specification:Sans"
     inkscape:connector-curvature="0" />
  <path
     d="m 44.589016,53.488383 a 1.3503542,1.3503542 0 1 1 -2.700705,0 1.3503542,1.3503542 0 1 1 2.700705,0 z"
     id="path4115"
     style="fill:none;stroke:#676767;stroke-width:0.3821519;stroke-linecap:butt;stroke-linejoin:miter;stroke-miterlimit:4;stroke-opacity:1;stroke-dasharray:none;stroke-dashoffset:0;display:inline"
     inkscape:connector-curvature="0" />
  <g
     transform="matrix(1.0276201,0,0,1.0276201,-136.65099,-434.97058)"
     id="text4117"
     style="font-size:7px;font-style:normal;font-variant:normal;font-weight:normal;font-stretch:normal;text-align:start;line-height:125%;letter-spacing:0px;word-spacing:0px;writing-mode:lr-tb;text-anchor:start;fill:#666666;fill-opacity:1;stroke:none;display:inline;font-family:Calibri;-inkscape-font-specification:Calibri">
    <path
       d="m 172.73877,481.83582 c 0,0.38281 -0.049,0.7172 -0.14697,1.00317 -0.098,0.28597 -0.24097,0.52295 -0.42896,0.71094 -0.18799,0.18799 -0.4187,0.32869 -0.69214,0.42212 -0.27344,0.0934 -0.59928,0.14013 -0.97754,0.14013 l -0.93652,0 c -0.0524,0 -0.10197,-0.0177 -0.14868,-0.053 -0.0467,-0.0353 -0.0701,-0.0974 -0.0701,-0.18628 l 0,-3.94433 c 0,-0.0889 0.0234,-0.15096 0.0701,-0.18628 0.0467,-0.0353 0.0963,-0.053 0.14868,-0.053 l 1.00147,0 c 0.38281,10e-6 0.70637,0.0496 0.9707,0.14868 0.26432,0.0991 0.48592,0.24154 0.66479,0.42725 0.17887,0.18571 0.31445,0.41073 0.40674,0.67505 0.0923,0.26432 0.13843,0.56283 0.13843,0.89551 z m -0.61865,0.0239 c -10e-6,-0.23925 -0.0296,-0.46199 -0.0889,-0.66821 -0.0592,-0.20622 -0.1521,-0.38452 -0.27856,-0.53491 -0.12647,-0.15039 -0.28655,-0.26774 -0.48023,-0.35205 -0.19369,-0.0843 -0.4432,-0.12647 -0.74853,-0.12647 l -0.59815,0 0,3.4419 0.60498,0 c 0.28255,0 0.52067,-0.0353 0.71436,-0.10596 0.19368,-0.0706 0.35546,-0.17887 0.48535,-0.32471 0.12988,-0.14583 0.22729,-0.32869 0.29224,-0.54858 0.0649,-0.21989 0.0974,-0.48023 0.0974,-0.78101 z"
       id="path4122"
       inkscape:connector-curvature="0"
       style="fill:#666666" />
    <path
       d="m 174.23242,484.02332 c 0,0.0182 -0.005,0.0342 -0.0137,0.0478 -0.009,0.0137 -0.0251,0.0245 -0.0479,0.0325 -0.0228,0.008 -0.053,0.0148 -0.0906,0.0205 -0.0376,0.006 -0.0849,0.009 -0.14184,0.009 -0.0547,0 -0.1014,-0.003 -0.14014,-0.009 -0.0387,-0.006 -0.0695,-0.0125 -0.0923,-0.0205 -0.0228,-0.008 -0.0387,-0.0188 -0.0479,-0.0325 -0.009,-0.0137 -0.0137,-0.0296 -0.0137,-0.0478 l 0,-4.24512 c 0,-0.0182 0.005,-0.0342 0.0154,-0.0479 0.0103,-0.0137 0.0274,-0.0245 0.0513,-0.0325 0.0239,-0.008 0.0547,-0.0148 0.0923,-0.0205 0.0376,-0.006 0.0826,-0.009 0.13501,-0.009 0.057,1e-5 0.10424,0.003 0.14184,0.009 0.0376,0.006 0.0678,0.0125 0.0906,0.0205 0.0228,0.008 0.0387,0.0188 0.0479,0.0325 0.009,0.0137 0.0137,0.0296 0.0137,0.0479 z"
       id="path4124"
       inkscape:connector-curvature="0"
       style="fill:#666666" />
    <path
       d="m 177.78369,482.87146 c 0,0.20736 -0.0382,0.39193 -0.1145,0.55371 -0.0763,0.16179 -0.18229,0.29907 -0.31787,0.41187 -0.13558,0.11279 -0.29509,0.19767 -0.47852,0.25463 -0.18343,0.057 -0.3811,0.0854 -0.59301,0.0854 -0.14812,0 -0.28541,-0.0125 -0.41187,-0.0376 -0.12647,-0.0251 -0.23926,-0.0558 -0.33838,-0.0923 -0.0991,-0.0365 -0.18229,-0.074 -0.24951,-0.11279 -0.0672,-0.0387 -0.11393,-0.0718 -0.14014,-0.0991 -0.0262,-0.0274 -0.0456,-0.0621 -0.0581,-0.10425 -0.0125,-0.0422 -0.0188,-0.0986 -0.0188,-0.16919 0,-0.0501 0.002,-0.0917 0.007,-0.12476 0.005,-0.033 0.0114,-0.0598 0.0205,-0.0803 0.009,-0.0205 0.0205,-0.0347 0.0342,-0.0427 0.0137,-0.008 0.0296,-0.012 0.0479,-0.012 0.0319,0 0.0769,0.0194 0.13501,0.0581 0.0581,0.0387 0.13273,0.0809 0.22388,0.12646 0.0911,0.0456 0.20109,0.0883 0.32983,0.12818 0.12875,0.0399 0.27743,0.0598 0.44605,0.0598 0.1276,0 0.24438,-0.0171 0.35034,-0.0513 0.10596,-0.0342 0.1971,-0.0826 0.27344,-0.14526 0.0763,-0.0627 0.13501,-0.13957 0.17602,-0.23071 0.041,-0.0911 0.0615,-0.19483 0.0615,-0.31104 -10e-6,-0.12532 -0.0285,-0.23242 -0.0855,-0.32129 -0.057,-0.0889 -0.13217,-0.16691 -0.22559,-0.23413 -0.0934,-0.0672 -0.19995,-0.12874 -0.31958,-0.18457 -0.11963,-0.0558 -0.24211,-0.11279 -0.36743,-0.1709 -0.12533,-0.0581 -0.24723,-0.12247 -0.36572,-0.19311 -0.11849,-0.0706 -0.22445,-0.15381 -0.31787,-0.24951 -0.0934,-0.0957 -0.16919,-0.20793 -0.2273,-0.33667 -0.0581,-0.12874 -0.0872,-0.28312 -0.0872,-0.46314 0,-0.18457 0.0336,-0.3492 0.10083,-0.4939 0.0672,-0.14469 0.16065,-0.26602 0.28028,-0.36401 0.11962,-0.098 0.26204,-0.1726 0.42724,-0.22388 0.1652,-0.0513 0.34351,-0.0769 0.53491,-0.0769 0.098,0 0.19654,0.009 0.29566,0.0256 0.0991,0.0171 0.19254,0.0399 0.28027,0.0684 0.0877,0.0285 0.16577,0.0604 0.23413,0.0957 0.0684,0.0353 0.11336,0.0638 0.13501,0.0854 0.0216,0.0217 0.0359,0.0387 0.0427,0.0513 0.007,0.0125 0.0125,0.0285 0.0171,0.0478 0.005,0.0194 0.008,0.0427 0.0102,0.0701 0.002,0.0273 0.003,0.0627 0.003,0.10595 0,0.041 -0.002,0.0775 -0.005,0.10938 -0.003,0.0319 -0.009,0.0587 -0.0154,0.0803 -0.007,0.0217 -0.0165,0.0376 -0.029,0.0479 -0.0125,0.0103 -0.0268,0.0154 -0.0427,0.0154 -0.0251,1e-5 -0.0644,-0.0159 -0.11792,-0.0479 -0.0536,-0.0319 -0.11906,-0.0678 -0.19653,-0.10767 -0.0775,-0.0399 -0.16919,-0.0763 -0.27515,-0.10937 -0.10595,-0.033 -0.22501,-0.0496 -0.35717,-0.0496 -0.12305,0 -0.23015,0.0165 -0.32129,0.0496 -0.0911,0.033 -0.16634,0.0769 -0.22559,0.13159 -0.0592,0.0547 -0.10368,0.11963 -0.1333,0.19483 -0.0296,0.0752 -0.0444,0.15495 -0.0444,0.23925 0,0.12305 0.0285,0.22901 0.0855,0.31787 0.057,0.0889 0.13273,0.16749 0.22729,0.23584 0.0946,0.0684 0.20223,0.13103 0.323,0.18799 0.12077,0.057 0.24381,0.11451 0.36914,0.17261 0.12532,0.0581 0.24837,0.12191 0.36914,0.19141 0.12077,0.0695 0.22843,0.15153 0.323,0.24609 0.0946,0.0946 0.17089,0.20622 0.229,0.33496 0.0581,0.12875 0.0872,0.28085 0.0872,0.4563 z"
       id="path4126"
       inkscape:connector-curvature="0"
       style="fill:#666666" />
    <path
       d="m 181.57422,483.48669 c 0,0.0365 -0.001,0.0684 -0.003,0.0957 -0.002,0.0273 -0.006,0.0513 -0.012,0.0718 -0.006,0.0205 -0.0131,0.0387 -0.0222,0.0547 -0.009,0.0159 -0.0251,0.0353 -0.0479,0.0581 -0.0228,0.0228 -0.0706,0.0575 -0.14356,0.10425 -0.0729,0.0467 -0.16349,0.0923 -0.27172,0.13671 -0.10824,0.0444 -0.23243,0.082 -0.37256,0.1128 -0.14014,0.0308 -0.29338,0.0461 -0.45972,0.0461 -0.28711,0 -0.54631,-0.0479 -0.77759,-0.14355 -0.23128,-0.0957 -0.42838,-0.23698 -0.59131,-0.42383 -0.16292,-0.18685 -0.28824,-0.41756 -0.37597,-0.69214 -0.0877,-0.27458 -0.13159,-0.59074 -0.13159,-0.94849 0,-0.36686 0.0473,-0.69384 0.14184,-0.98095 0.0946,-0.28711 0.2273,-0.53036 0.3982,-0.72974 0.17089,-0.19938 0.3754,-0.35148 0.61352,-0.4563 0.23812,-0.10481 0.50187,-0.15722 0.79126,-0.15723 0.1276,1e-5 0.25179,0.012 0.37256,0.0359 0.12076,0.0239 0.23242,0.0541 0.33496,0.0906 0.10254,0.0365 0.19368,0.0786 0.27344,0.12646 0.0798,0.0479 0.135,0.0872 0.16577,0.11792 0.0308,0.0308 0.0507,0.0541 0.0598,0.0701 0.009,0.016 0.0165,0.0348 0.0222,0.0564 0.006,0.0217 0.0102,0.0473 0.0137,0.0769 0.003,0.0296 0.005,0.065 0.005,0.10596 0,0.0456 -0.002,0.0843 -0.007,0.11621 -0.005,0.0319 -0.0114,0.0587 -0.0205,0.0803 -0.009,0.0217 -0.0199,0.0376 -0.0325,0.0478 -0.0125,0.0103 -0.0279,0.0154 -0.0461,0.0154 -0.0319,1e-5 -0.0763,-0.0222 -0.1333,-0.0667 -0.057,-0.0444 -0.13045,-0.0934 -0.22046,-0.14697 -0.09,-0.0535 -0.19938,-0.10253 -0.32812,-0.14697 -0.12875,-0.0444 -0.28313,-0.0667 -0.46314,-0.0667 -0.19596,0 -0.37427,0.0393 -0.53491,0.11792 -0.16065,0.0786 -0.29793,0.19426 -0.41187,0.34692 -0.11393,0.15268 -0.20223,0.33895 -0.26489,0.55884 -0.0627,0.21989 -0.094,0.47111 -0.094,0.75366 0,0.28028 0.0302,0.52808 0.0906,0.74341 0.0604,0.21533 0.14698,0.39535 0.25977,0.54004 0.11279,0.14469 0.25122,0.25407 0.41528,0.32812 0.16406,0.0741 0.34977,0.11109 0.55713,0.11109 0.17546,0 0.32869,-0.0216 0.45972,-0.0649 0.13102,-0.0433 0.24267,-0.0917 0.33496,-0.14527 0.0923,-0.0535 0.16805,-0.10196 0.22729,-0.14526 0.0592,-0.0433 0.10596,-0.0649 0.14014,-0.0649 0.0159,0 0.0296,0.003 0.041,0.0103 0.0114,0.007 0.0205,0.0199 0.0273,0.0393 0.007,0.0194 0.012,0.0461 0.0154,0.0803 0.003,0.0342 0.005,0.0775 0.005,0.12988 z"
       id="path4128"
       inkscape:connector-curvature="0"
       style="fill:#666666" />
  </g>
  <g
     transform="matrix(1.0276201,0,0,1.0276201,-136.65099,-434.84213)"
     id="text4130"
     style="font-size:7px;font-style:normal;font-variant:normal;font-weight:normal;font-stretch:normal;text-align:start;line-height:125%;letter-spacing:0px;word-spacing:0px;writing-mode:lr-tb;text-anchor:start;fill:#666666;fill-opacity:1;stroke:none;display:inline;font-family:Calibri;-inkscape-font-specification:Calibri">
    <path
       d="m 169.42383,511.11951 c 0,0.041 -0.002,0.0769 -0.007,0.10766 -0.005,0.0308 -0.0125,0.0564 -0.0239,0.0769 -0.0114,0.0205 -0.0245,0.0353 -0.0393,0.0444 -0.0148,0.009 -0.0313,0.0137 -0.0496,0.0137 l -2.12256,0 c -0.0524,0 -0.10197,-0.0177 -0.14868,-0.053 -0.0467,-0.0353 -0.0701,-0.0974 -0.0701,-0.18628 l 0,-3.94433 c 0,-0.0889 0.0234,-0.15096 0.0701,-0.18628 0.0467,-0.0353 0.0963,-0.053 0.14868,-0.053 l 2.09863,0 c 0.0182,1e-5 0.0348,0.005 0.0496,0.0137 0.0148,0.009 0.0268,0.0239 0.0359,0.0444 0.009,0.0205 0.0165,0.0461 0.0222,0.0769 0.006,0.0308 0.009,0.0689 0.009,0.1145 0,0.041 -0.003,0.0769 -0.009,0.10767 -0.006,0.0308 -0.0131,0.0558 -0.0222,0.0752 -0.009,0.0194 -0.0211,0.0336 -0.0359,0.0427 -0.0148,0.009 -0.0313,0.0137 -0.0496,0.0137 l -1.72949,0 0,1.3877 1.4834,0 c 0.0182,0 0.0348,0.005 0.0496,0.0154 0.0148,0.0102 0.0273,0.0245 0.0376,0.0427 0.0102,0.0182 0.0177,0.0433 0.0222,0.0752 0.005,0.0319 0.007,0.0695 0.007,0.11279 0,0.041 -0.002,0.0763 -0.007,0.10596 -0.005,0.0296 -0.012,0.0536 -0.0222,0.0718 -0.0103,0.0182 -0.0228,0.0313 -0.0376,0.0393 -0.0148,0.008 -0.0313,0.012 -0.0496,0.012 l -1.4834,0 0,1.58252 1.75342,0 c 0.0182,0 0.0348,0.005 0.0496,0.0137 0.0148,0.009 0.0279,0.0234 0.0393,0.0427 0.0114,0.0194 0.0194,0.0444 0.0239,0.0752 0.005,0.0308 0.007,0.0689 0.007,0.11451 z"
       id="path4135"
       style="fill:#666666"
       inkscape:connector-curvature="0" />
    <path
       d="m 171.44727,510.24792 c -1e-5,0.17546 -0.016,0.33611 -0.0479,0.48194 -0.0319,0.14583 -0.0866,0.27002 -0.16406,0.37256 -0.0775,0.10254 -0.17944,0.18172 -0.30591,0.23755 -0.12646,0.0558 -0.28312,0.0837 -0.46997,0.0837 -0.0638,0 -0.12703,-0.005 -0.18969,-0.0154 -0.0627,-0.0103 -0.1202,-0.0239 -0.17261,-0.041 -0.0524,-0.0171 -0.098,-0.0353 -0.13672,-0.0547 -0.0387,-0.0194 -0.0644,-0.0359 -0.0769,-0.0496 -0.0125,-0.0137 -0.0228,-0.0273 -0.0308,-0.041 -0.008,-0.0137 -0.0148,-0.0302 -0.0205,-0.0496 -0.006,-0.0194 -0.01,-0.0433 -0.012,-0.0718 -0.002,-0.0285 -0.003,-0.0632 -0.003,-0.10425 0,-0.0501 0.002,-0.0917 0.005,-0.12476 0.003,-0.033 0.01,-0.0592 0.0188,-0.0786 0.009,-0.0194 0.0199,-0.033 0.0325,-0.041 0.0125,-0.008 0.0279,-0.012 0.0461,-0.012 0.0182,0 0.0416,0.009 0.0701,0.0256 0.0285,0.0171 0.0627,0.0359 0.10254,0.0564 0.0399,0.0205 0.086,0.0393 0.13843,0.0564 0.0524,0.0171 0.11393,0.0256 0.18457,0.0256 0.0775,1e-5 0.14355,-0.01 0.19824,-0.0291 0.0547,-0.0194 0.10026,-0.0553 0.13672,-0.10766 0.0365,-0.0524 0.0638,-0.12476 0.082,-0.21704 0.0182,-0.0923 0.0273,-0.21249 0.0273,-0.3606 l 0,-3.16504 c 0,-0.016 0.005,-0.0308 0.0137,-0.0444 0.009,-0.0137 0.0251,-0.0251 0.0478,-0.0342 0.0228,-0.009 0.053,-0.0159 0.0906,-0.0205 0.0376,-0.005 0.0849,-0.007 0.14185,-0.007 0.0547,10e-6 0.1014,0.002 0.14014,0.007 0.0387,0.005 0.0689,0.0114 0.0906,0.0205 0.0216,0.009 0.0376,0.0205 0.0479,0.0342 0.0103,0.0137 0.0154,0.0285 0.0154,0.0444 z"
       id="path4137"
       style="fill:#666666"
       inkscape:connector-curvature="0" />
    <path
       d="m 175.07031,511.11951 c 0,0.041 -0.002,0.0769 -0.007,0.10766 -0.005,0.0308 -0.0125,0.0564 -0.0239,0.0769 -0.0114,0.0205 -0.0245,0.0353 -0.0393,0.0444 -0.0148,0.009 -0.0313,0.0137 -0.0496,0.0137 l -2.12256,0 c -0.0524,0 -0.10197,-0.0177 -0.14868,-0.053 -0.0467,-0.0353 -0.0701,-0.0974 -0.0701,-0.18628 l 0,-3.94433 c 0,-0.0889 0.0234,-0.15096 0.0701,-0.18628 0.0467,-0.0353 0.0963,-0.053 0.14868,-0.053 l 2.09864,0 c 0.0182,1e-5 0.0347,0.005 0.0496,0.0137 0.0148,0.009 0.0268,0.0239 0.0359,0.0444 0.009,0.0205 0.0165,0.0461 0.0222,0.0769 0.006,0.0308 0.009,0.0689 0.009,0.1145 0,0.041 -0.003,0.0769 -0.009,0.10767 -0.006,0.0308 -0.0131,0.0558 -0.0222,0.0752 -0.009,0.0194 -0.0211,0.0336 -0.0359,0.0427 -0.0148,0.009 -0.0313,0.0137 -0.0496,0.0137 l -1.72949,0 0,1.3877 1.48339,0 c 0.0182,0 0.0348,0.005 0.0496,0.0154 0.0148,0.0102 0.0273,0.0245 0.0376,0.0427 0.0103,0.0182 0.0177,0.0433 0.0222,0.0752 0.005,0.0319 0.007,0.0695 0.007,0.11279 0,0.041 -0.002,0.0763 -0.007,0.10596 -0.005,0.0296 -0.012,0.0536 -0.0222,0.0718 -0.0103,0.0182 -0.0228,0.0313 -0.0376,0.0393 -0.0148,0.008 -0.0313,0.012 -0.0496,0.012 l -1.48339,0 0,1.58252 1.75341,0 c 0.0182,0 0.0348,0.005 0.0496,0.0137 0.0148,0.009 0.0279,0.0234 0.0393,0.0427 0.0114,0.0194 0.0194,0.0444 0.0239,0.0752 0.005,0.0308 0.007,0.0689 0.007,0.11451 z"
       id="path4139"
       style="fill:#666666"
       inkscape:connector-curvature="0" />
    <path
       d="m 178.98047,510.73669 c 0,0.0365 -0.001,0.0684 -0.003,0.0957 -0.002,0.0273 -0.006,0.0513 -0.012,0.0718 -0.006,0.0205 -0.0131,0.0387 -0.0222,0.0547 -0.009,0.0159 -0.0251,0.0353 -0.0479,0.0581 -0.0228,0.0228 -0.0706,0.0575 -0.14356,0.10425 -0.0729,0.0467 -0.16349,0.0923 -0.27172,0.13671 -0.10824,0.0444 -0.23243,0.082 -0.37256,0.1128 -0.14014,0.0308 -0.29338,0.0461 -0.45972,0.0461 -0.28711,0 -0.54631,-0.0479 -0.77759,-0.14355 -0.23128,-0.0957 -0.42838,-0.23698 -0.59131,-0.42383 -0.16292,-0.18685 -0.28824,-0.41756 -0.37597,-0.69214 -0.0877,-0.27458 -0.13159,-0.59074 -0.13159,-0.94849 0,-0.36686 0.0473,-0.69384 0.14184,-0.98095 0.0946,-0.28711 0.2273,-0.53036 0.3982,-0.72974 0.17089,-0.19938 0.3754,-0.35148 0.61352,-0.4563 0.23812,-0.10481 0.50187,-0.15722 0.79126,-0.15723 0.1276,1e-5 0.25179,0.012 0.37256,0.0359 0.12076,0.0239 0.23242,0.0541 0.33496,0.0906 0.10254,0.0365 0.19368,0.0786 0.27344,0.12646 0.0798,0.0479 0.135,0.0872 0.16577,0.11792 0.0308,0.0308 0.0507,0.0541 0.0598,0.0701 0.009,0.016 0.0165,0.0348 0.0222,0.0564 0.006,0.0217 0.0102,0.0473 0.0137,0.0769 0.003,0.0296 0.005,0.065 0.005,0.10596 0,0.0456 -0.002,0.0843 -0.007,0.11621 -0.005,0.0319 -0.0114,0.0587 -0.0205,0.0803 -0.009,0.0217 -0.0199,0.0376 -0.0325,0.0478 -0.0125,0.0103 -0.0279,0.0154 -0.0461,0.0154 -0.0319,1e-5 -0.0763,-0.0222 -0.1333,-0.0667 -0.057,-0.0444 -0.13045,-0.0934 -0.22046,-0.14697 -0.09,-0.0535 -0.19938,-0.10253 -0.32812,-0.14697 -0.12875,-0.0444 -0.28313,-0.0667 -0.46314,-0.0667 -0.19596,0 -0.37427,0.0393 -0.53491,0.11792 -0.16065,0.0786 -0.29793,0.19426 -0.41187,0.34692 -0.11393,0.15268 -0.20223,0.33895 -0.26489,0.55884 -0.0627,0.21989 -0.094,0.47111 -0.094,0.75366 0,0.28028 0.0302,0.52808 0.0906,0.74341 0.0604,0.21533 0.14698,0.39535 0.25977,0.54004 0.11279,0.14469 0.25122,0.25407 0.41528,0.32812 0.16406,0.0741 0.34977,0.11109 0.55713,0.11109 0.17546,0 0.32869,-0.0216 0.45972,-0.0649 0.13102,-0.0433 0.24267,-0.0917 0.33496,-0.14527 0.0923,-0.0535 0.16805,-0.10196 0.22729,-0.14526 0.0592,-0.0433 0.10596,-0.0649 0.14014,-0.0649 0.0159,0 0.0296,0.003 0.041,0.0103 0.0114,0.007 0.0205,0.0199 0.0273,0.0393 0.007,0.0194 0.012,0.0461 0.0154,0.0803 0.003,0.0342 0.005,0.0775 0.005,0.12988 z"
       id="path4141"
       style="fill:#666666"
       inkscape:connector-curvature="0" />
    <path
       d="m 182.53174,507.19226 c -1e-5,0.0433 -0.002,0.0809 -0.007,0.11279 -0.005,0.0319 -0.012,0.0575 -0.0222,0.0769 -0.0103,0.0194 -0.0228,0.0336 -0.0376,0.0427 -0.0148,0.009 -0.0313,0.0137 -0.0496,0.0137 l -1.24414,0 0,3.83497 c -1e-5,0.0182 -0.005,0.0342 -0.0137,0.0478 -0.009,0.0137 -0.0251,0.0245 -0.0479,0.0325 -0.0228,0.008 -0.053,0.0148 -0.0906,0.0205 -0.0376,0.006 -0.0849,0.009 -0.14185,0.009 -0.0547,0 -0.1014,-0.003 -0.14014,-0.009 -0.0387,-0.006 -0.0695,-0.0125 -0.0923,-0.0205 -0.0228,-0.008 -0.0387,-0.0188 -0.0478,-0.0325 -0.009,-0.0137 -0.0137,-0.0296 -0.0137,-0.0478 l 0,-3.83497 -1.24414,0 c -0.0182,10e-6 -0.0348,-0.005 -0.0496,-0.0137 -0.0148,-0.009 -0.0268,-0.0234 -0.0359,-0.0427 -0.009,-0.0194 -0.0165,-0.045 -0.0222,-0.0769 -0.006,-0.0319 -0.009,-0.0695 -0.009,-0.11279 0,-0.0433 0.003,-0.0815 0.009,-0.1145 0.006,-0.033 0.0131,-0.0598 0.0222,-0.0803 0.009,-0.0205 0.0211,-0.0353 0.0359,-0.0444 0.0148,-0.009 0.0313,-0.0137 0.0496,-0.0137 l 3.07617,0 c 0.0182,10e-6 0.0347,0.005 0.0496,0.0137 0.0148,0.009 0.0273,0.0239 0.0376,0.0444 0.0102,0.0205 0.0177,0.0473 0.0222,0.0803 0.005,0.033 0.007,0.0712 0.007,0.1145 z"
       id="path4143"
       style="fill:#666666"
       inkscape:connector-curvature="0" />
  </g>
  <g
     transform="matrix(1.0276201,0,0,1.0276201,-136.65099,-434.97058)"
     id="text4145"
     style="font-size:7px;font-style:normal;font-variant:normal;font-weight:normal;font-stretch:normal;text-align:start;line-height:125%;letter-spacing:0px;word-spacing:0px;writing-mode:lr-tb;text-anchor:start;fill:#999999;fill-opacity:1;stroke:none;display:inline;font-family:Calibri;-inkscape-font-specification:Calibri">
    <path
       d="m 265.27588,574.24646 c 0,0.20736 -0.0382,0.39193 -0.1145,0.55371 -0.0763,0.16179 -0.1823,0.29907 -0.31787,0.41187 -0.13559,0.11279 -0.29509,0.19767 -0.47852,0.25463 -0.18343,0.057 -0.3811,0.0854 -0.59302,0.0854 -0.14811,0 -0.2854,-0.0125 -0.41186,-0.0376 -0.12647,-0.0251 -0.23926,-0.0558 -0.33838,-0.0923 -0.0991,-0.0365 -0.18229,-0.074 -0.24951,-0.11279 -0.0672,-0.0387 -0.11394,-0.0718 -0.14014,-0.0991 -0.0262,-0.0273 -0.0456,-0.0621 -0.0581,-0.10425 -0.0125,-0.0422 -0.0188,-0.0986 -0.0188,-0.16919 0,-0.0501 0.002,-0.0917 0.007,-0.12476 0.005,-0.033 0.0114,-0.0598 0.0205,-0.0803 0.009,-0.0205 0.0205,-0.0348 0.0342,-0.0427 0.0137,-0.008 0.0296,-0.012 0.0479,-0.012 0.0319,0 0.0769,0.0194 0.13501,0.0581 0.0581,0.0387 0.13273,0.0809 0.22388,0.12646 0.0911,0.0456 0.20109,0.0883 0.32983,0.12818 0.12874,0.0399 0.27743,0.0598 0.44605,0.0598 0.1276,0 0.24438,-0.0171 0.35034,-0.0513 0.10595,-0.0342 0.1971,-0.0826 0.27344,-0.14526 0.0763,-0.0627 0.135,-0.13957 0.17602,-0.23071 0.041,-0.0911 0.0615,-0.19483 0.0615,-0.31104 0,-0.12532 -0.0285,-0.23242 -0.0854,-0.32129 -0.057,-0.0889 -0.13217,-0.16691 -0.22559,-0.23413 -0.0934,-0.0672 -0.19995,-0.12874 -0.31958,-0.18457 -0.11963,-0.0558 -0.24211,-0.11279 -0.36743,-0.1709 -0.12533,-0.0581 -0.24724,-0.12247 -0.36573,-0.19311 -0.11849,-0.0706 -0.22444,-0.15381 -0.31787,-0.24951 -0.0934,-0.0957 -0.16919,-0.20793 -0.22729,-0.33667 -0.0581,-0.12874 -0.0872,-0.28312 -0.0872,-0.46314 0,-0.18457 0.0336,-0.3492 0.10083,-0.4939 0.0672,-0.14469 0.16064,-0.26602 0.28027,-0.36401 0.11963,-0.098 0.26205,-0.1726 0.42725,-0.22388 0.1652,-0.0513 0.3435,-0.0769 0.53491,-0.0769 0.098,0 0.19653,0.009 0.29566,0.0256 0.0991,0.0171 0.19254,0.0399 0.28027,0.0684 0.0877,0.0285 0.16577,0.0604 0.23413,0.0957 0.0684,0.0353 0.11336,0.0638 0.13501,0.0855 0.0217,0.0217 0.0359,0.0387 0.0427,0.0513 0.007,0.0125 0.0125,0.0285 0.0171,0.0478 0.005,0.0194 0.008,0.0427 0.0102,0.0701 0.002,0.0273 0.003,0.0627 0.003,0.10595 -1e-5,0.041 -0.002,0.0775 -0.005,0.10938 -0.003,0.0319 -0.009,0.0587 -0.0154,0.0803 -0.007,0.0217 -0.0165,0.0376 -0.029,0.0479 -0.0125,0.0103 -0.0268,0.0154 -0.0427,0.0154 -0.0251,10e-6 -0.0644,-0.0159 -0.11792,-0.0478 -0.0536,-0.0319 -0.11906,-0.0678 -0.19653,-0.10767 -0.0775,-0.0399 -0.16919,-0.0763 -0.27515,-0.10937 -0.10596,-0.033 -0.22502,-0.0496 -0.35718,-0.0496 -0.12304,0 -0.23014,0.0165 -0.32128,0.0496 -0.0912,0.033 -0.16635,0.0769 -0.22559,0.13159 -0.0593,0.0547 -0.10368,0.11963 -0.1333,0.19483 -0.0296,0.0752 -0.0444,0.15495 -0.0444,0.23925 -10e-6,0.12305 0.0285,0.22901 0.0854,0.31787 0.057,0.0889 0.13273,0.16749 0.2273,0.23584 0.0946,0.0684 0.20223,0.13103 0.323,0.18799 0.12076,0.057 0.24381,0.11451 0.36914,0.17261 0.12532,0.0581 0.24837,0.12191 0.36914,0.19141 0.12076,0.0695 0.22843,0.15153 0.323,0.24609 0.0946,0.0946 0.17089,0.20622 0.229,0.33496 0.0581,0.12875 0.0872,0.28085 0.0872,0.4563 z"
       id="path4165"
       inkscape:connector-curvature="0" />
    <path
       d="m 267.5249,573.76794 0,1.63038 c 0,0.0182 -0.005,0.0342 -0.0137,0.0479 -0.009,0.0137 -0.0251,0.0245 -0.0479,0.0325 -0.0228,0.008 -0.0535,0.0148 -0.0923,0.0205 -0.0387,0.006 -0.0854,0.009 -0.14013,0.009 -0.057,0 -0.10425,-0.003 -0.14185,-0.009 -0.0376,-0.006 -0.0684,-0.0125 -0.0923,-0.0205 -0.0239,-0.008 -0.0404,-0.0188 -0.0496,-0.0325 -0.009,-0.0137 -0.0137,-0.0296 -0.0137,-0.0479 l 0,-1.63038 -1.25097,-2.49511 c -0.0251,-0.0524 -0.0404,-0.0934 -0.0462,-0.12305 -0.006,-0.0296 0,-0.0524 0.0171,-0.0684 0.0171,-0.0159 0.0479,-0.0262 0.0923,-0.0308 0.0444,-0.005 0.10425,-0.007 0.17944,-0.007 0.0684,10e-6 0.12362,0.002 0.16577,0.007 0.0422,0.005 0.0758,0.0108 0.10083,0.0188 0.0251,0.008 0.0439,0.0194 0.0564,0.0342 0.0125,0.0148 0.0245,0.0336 0.0359,0.0564 l 0.61182,1.27149 c 0.057,0.12077 0.11393,0.24723 0.17089,0.37939 0.057,0.13217 0.11507,0.26547 0.17432,0.39991 l 0.007,0 c 0.0524,-0.12988 0.10652,-0.2592 0.16235,-0.38794 0.0558,-0.12874 0.11222,-0.25578 0.16919,-0.38111 l 0.61523,-1.27832 c 0.007,-0.0228 0.0165,-0.0421 0.0291,-0.0581 0.0125,-0.016 0.0296,-0.0279 0.0513,-0.0359 0.0216,-0.008 0.0518,-0.0142 0.0906,-0.0188 0.0387,-0.005 0.0877,-0.007 0.14698,-0.007 0.082,10e-6 0.1464,0.003 0.19311,0.009 0.0467,0.006 0.0792,0.0165 0.0974,0.0325 0.0182,0.0159 0.0245,0.0387 0.0188,0.0684 -0.006,0.0296 -0.0211,0.0695 -0.0461,0.11963 z"
       id="path4167"
       inkscape:connector-curvature="0" />
    <path
       d="m 272.87402,575.24451 c 0,0.0456 -0.007,0.0843 -0.0222,0.11621 -0.0148,0.0319 -0.0342,0.0581 -0.0581,0.0786 -0.0239,0.0205 -0.0507,0.0353 -0.0803,0.0444 -0.0296,0.009 -0.0592,0.0137 -0.0889,0.0137 l -0.18799,0 c -0.0592,0 -0.11108,-0.006 -0.15551,-0.0188 -0.0444,-0.0125 -0.0866,-0.0353 -0.12647,-0.0684 -0.0399,-0.033 -0.0797,-0.078 -0.11963,-0.13501 -0.0399,-0.057 -0.0837,-0.12988 -0.13159,-0.21875 l -1.39453,-2.51563 c -0.0729,-0.12988 -0.14641,-0.26603 -0.22046,-0.40844 -0.0741,-0.14242 -0.14299,-0.28084 -0.20679,-0.41529 l -0.007,0 c 0.005,0.16407 0.008,0.33155 0.0103,0.50244 0.002,0.17091 0.003,0.34066 0.003,0.50928 l 0,2.66944 c 0,0.0159 -0.005,0.0313 -0.0137,0.0461 -0.009,0.0148 -0.0245,0.0262 -0.0461,0.0342 -0.0216,0.008 -0.0501,0.0148 -0.0854,0.0205 -0.0353,0.006 -0.0803,0.009 -0.13501,0.009 -0.0547,0 -0.0997,-0.003 -0.13501,-0.009 -0.0353,-0.006 -0.0632,-0.0125 -0.0837,-0.0205 -0.0205,-0.008 -0.0353,-0.0194 -0.0444,-0.0342 -0.009,-0.0148 -0.0137,-0.0302 -0.0137,-0.0461 l 0,-4.08106 c 0,-0.0911 0.0251,-0.15608 0.0752,-0.19482 0.0501,-0.0387 0.10481,-0.0581 0.16406,-0.0581 l 0.28027,0 c 0.0661,10e-6 0.12134,0.006 0.16577,0.0171 0.0444,0.0114 0.0843,0.0302 0.11963,0.0564 0.0353,0.0262 0.0695,0.0627 0.10254,0.10937 0.033,0.0467 0.0689,0.10539 0.10767,0.17603 l 1.07324,1.9414 c 0.0661,0.1185 0.12988,0.23414 0.19141,0.34693 0.0615,0.11279 0.12076,0.22388 0.17773,0.33325 0.057,0.10938 0.11336,0.21704 0.16919,0.323 0.0558,0.10596 0.11108,0.21248 0.16577,0.31958 l 0.003,0 c -0.005,-0.18001 -0.007,-0.36743 -0.009,-0.56226 -0.001,-0.19482 -0.002,-0.38224 -0.002,-0.56225 l 0,-2.39942 c 0,-0.0159 0.005,-0.0308 0.0137,-0.0444 0.009,-0.0137 0.0245,-0.0256 0.0461,-0.0359 0.0216,-0.0102 0.0501,-0.0177 0.0854,-0.0222 0.0353,-0.005 0.0815,-0.007 0.13843,-0.007 0.0501,0 0.0934,0.002 0.12988,0.007 0.0365,0.005 0.0649,0.012 0.0854,0.0222 0.0205,0.0103 0.0353,0.0222 0.0444,0.0359 0.009,0.0137 0.0137,0.0285 0.0137,0.0444 z"
       id="path4169"
       inkscape:connector-curvature="0" />
    <path
       d="m 277.00977,574.86169 c -10e-6,0.0365 -10e-4,0.0684 -0.003,0.0957 -0.002,0.0273 -0.006,0.0513 -0.012,0.0718 -0.006,0.0205 -0.0131,0.0387 -0.0222,0.0547 -0.009,0.016 -0.0251,0.0353 -0.0478,0.0581 -0.0228,0.0228 -0.0706,0.0575 -0.14356,0.10425 -0.0729,0.0467 -0.16349,0.0923 -0.27173,0.13671 -0.10824,0.0444 -0.23242,0.082 -0.37256,0.1128 -0.14013,0.0308 -0.29337,0.0461 -0.45971,0.0461 -0.28711,0 -0.54631,-0.0479 -0.77759,-0.14355 -0.23128,-0.0957 -0.42839,-0.23698 -0.59131,-0.42383 -0.16292,-0.18685 -0.28825,-0.41756 -0.37598,-0.69214 -0.0877,-0.27458 -0.13159,-0.59074 -0.13159,-0.94849 0,-0.36686 0.0473,-0.69384 0.14185,-0.98095 0.0946,-0.28711 0.22729,-0.53036 0.39819,-0.72974 0.1709,-0.19938 0.37541,-0.35148 0.61353,-0.4563 0.23811,-0.10481 0.50187,-0.15722 0.79126,-0.15723 0.1276,10e-6 0.25179,0.012 0.37256,0.0359 0.12076,0.0239 0.23241,0.0541 0.33496,0.0906 0.10253,0.0365 0.19368,0.0786 0.27343,0.12646 0.0797,0.0479 0.13501,0.0872 0.16578,0.11792 0.0308,0.0308 0.0507,0.0541 0.0598,0.0701 0.009,0.016 0.0165,0.0348 0.0222,0.0564 0.006,0.0216 0.0102,0.0473 0.0137,0.0769 0.003,0.0296 0.005,0.065 0.005,0.10596 -10e-6,0.0456 -0.002,0.0843 -0.007,0.11621 -0.005,0.0319 -0.0114,0.0587 -0.0205,0.0803 -0.009,0.0217 -0.0199,0.0376 -0.0325,0.0479 -0.0125,0.0103 -0.0279,0.0154 -0.0461,0.0154 -0.0319,10e-6 -0.0763,-0.0222 -0.1333,-0.0666 -0.057,-0.0444 -0.13046,-0.0934 -0.22046,-0.14697 -0.09,-0.0535 -0.19939,-0.10253 -0.32813,-0.14697 -0.12874,-0.0444 -0.28312,-0.0666 -0.46313,-0.0666 -0.19597,0 -0.37427,0.0393 -0.53491,0.11792 -0.16065,0.0786 -0.29794,0.19426 -0.41187,0.34692 -0.11393,0.15268 -0.20223,0.33895 -0.26489,0.55884 -0.0627,0.21989 -0.094,0.47111 -0.094,0.75366 -1e-5,0.28028 0.0302,0.52808 0.0906,0.74341 0.0604,0.21533 0.14697,0.39535 0.25977,0.54004 0.11279,0.14469 0.25122,0.25407 0.41528,0.32812 0.16406,0.0741 0.34977,0.11109 0.55713,0.11109 0.17545,0 0.32869,-0.0217 0.45972,-0.0649 0.13102,-0.0433 0.24267,-0.0917 0.33496,-0.14527 0.0923,-0.0535 0.16804,-0.10196 0.22729,-0.14526 0.0592,-0.0433 0.10596,-0.0649 0.14014,-0.0649 0.0159,0 0.0296,0.003 0.041,0.0102 0.0114,0.007 0.0205,0.0199 0.0274,0.0393 0.007,0.0194 0.012,0.0461 0.0154,0.0803 0.003,0.0342 0.005,0.0775 0.005,0.12988 z"
       id="path4171"
       inkscape:connector-curvature="0" />
  </g>
  <g
     transform="matrix(1.0276201,0,0,1.0276201,-136.10601,-432.06403)"
     id="text4149"
     style="font-size:7px;font-style:normal;font-variant:normal;font-weight:normal;font-stretch:normal;text-align:start;line-height:125%;letter-spacing:0px;word-spacing:0px;writing-mode:lr-tb;text-anchor:start;fill:#666666;fill-opacity:1;stroke:none;display:inline;font-family:Calibri;-inkscape-font-specification:Calibri">
    <path
       d="m 166.47006,569.46277 c 0,0.22103 -0.0365,0.42041 -0.10937,0.59814 -0.0729,0.17774 -0.17717,0.32927 -0.31275,0.45459 -0.13558,0.12533 -0.30192,0.22217 -0.49902,0.29053 -0.19711,0.0684 -0.43238,0.10254 -0.70581,0.10254 l -0.50244,0 0,1.59277 c 0,0.0182 -0.005,0.0342 -0.0154,0.0478 -0.0103,0.0137 -0.0262,0.0245 -0.0478,0.0325 -0.0217,0.008 -0.0513,0.0148 -0.0889,0.0205 -0.0376,0.006 -0.0849,0.009 -0.14185,0.009 -0.057,0 -0.10425,-0.003 -0.14184,-0.009 -0.0376,-0.006 -0.0678,-0.0125 -0.0906,-0.0205 -0.0228,-0.008 -0.0387,-0.0188 -0.0479,-0.0325 -0.009,-0.0137 -0.0137,-0.0296 -0.0137,-0.0478 l 0,-4.08105 c 0,-0.0911 0.0239,-0.15608 0.0718,-0.19483 0.0479,-0.0387 0.1014,-0.0581 0.16065,-0.0581 l 0.94678,0 c 0.0957,0 0.18741,0.004 0.27514,0.012 0.0877,0.008 0.19141,0.0251 0.31104,0.0513 0.11962,0.0262 0.24153,0.0752 0.36572,0.14697 0.12418,0.0718 0.22957,0.16008 0.31616,0.2649 0.0866,0.10482 0.15324,0.22616 0.19995,0.36401 0.0467,0.13786 0.0701,0.28996 0.0701,0.4563 z m -0.61865,0.0479 c 0,-0.18001 -0.0336,-0.3304 -0.10083,-0.45117 -0.0672,-0.12077 -0.15039,-0.21077 -0.24951,-0.27002 -0.0991,-0.0592 -0.20166,-0.0968 -0.30762,-0.11279 -0.10596,-0.0159 -0.20907,-0.0239 -0.30933,-0.0239 l -0.54345,0 0,1.77393 0.52978,0 c 0.17774,0 0.32528,-0.0228 0.44263,-0.0684 0.11735,-0.0456 0.2159,-0.10881 0.29565,-0.1897 0.0797,-0.0809 0.14014,-0.17773 0.18116,-0.29053 0.041,-0.11279 0.0615,-0.23527 0.0615,-0.36743 z"
       id="path4154"
       inkscape:connector-curvature="0"
       style="fill:#666666" />
    <path
       d="m 171.0809,570.32751 c 0,0.35775 -0.0422,0.68018 -0.12646,0.96729 -0.0843,0.28711 -0.21021,0.53149 -0.37769,0.73315 -0.16748,0.20166 -0.37769,0.35661 -0.63061,0.46485 -0.25294,0.10823 -0.54802,0.16235 -0.88526,0.16235 -0.33268,0 -0.62036,-0.0496 -0.86303,-0.14868 -0.24268,-0.0991 -0.4432,-0.24325 -0.60157,-0.43237 -0.15836,-0.18913 -0.27628,-0.42383 -0.35376,-0.7041 -0.0775,-0.28028 -0.11621,-0.6027 -0.11621,-0.96729 0,-0.34863 0.0422,-0.66536 0.12647,-0.9502 0.0843,-0.28482 0.21077,-0.52693 0.37939,-0.72631 0.16862,-0.19938 0.37939,-0.35319 0.63233,-0.46143 0.25292,-0.10823 0.54801,-0.16235 0.88525,-0.16235 0.32584,0 0.60953,0.049 0.85107,0.14697 0.24154,0.098 0.44263,0.24097 0.60328,0.42895 0.16064,0.188 0.28026,0.42042 0.35888,0.69727 0.0786,0.27686 0.11792,0.59416 0.11792,0.9519 z m -0.61865,0.041 c 0,-0.25065 -0.0222,-0.48364 -0.0667,-0.69897 -0.0444,-0.21533 -0.11849,-0.40218 -0.22217,-0.56055 -0.10368,-0.15836 -0.24211,-0.28198 -0.41528,-0.37085 -0.17318,-0.0889 -0.38737,-0.1333 -0.64258,-0.1333 -0.25521,0 -0.4694,0.0478 -0.64258,0.14355 -0.17318,0.0957 -0.31388,0.22331 -0.42212,0.38282 -0.10823,0.1595 -0.18571,0.34578 -0.23242,0.55883 -0.0467,0.21306 -0.0701,0.43694 -0.0701,0.67163 0,0.25977 0.0216,0.49903 0.0649,0.71778 0.0433,0.21875 0.11621,0.40731 0.21875,0.56567 0.10254,0.15837 0.23983,0.28142 0.41187,0.36914 0.17204,0.0877 0.38794,0.13159 0.6477,0.13159 0.25749,0 0.47396,-0.0478 0.64942,-0.14355 0.17545,-0.0957 0.31673,-0.22502 0.42383,-0.38794 0.10709,-0.16292 0.18342,-0.35148 0.229,-0.56567 0.0456,-0.21419 0.0684,-0.44092 0.0684,-0.68018 z"
       id="path4156"
       inkscape:connector-curvature="0"
       style="fill:#666666" />
    <path
       d="m 176.24545,572.46033 c -0.009,0.0319 -0.0228,0.0575 -0.041,0.0769 -0.0182,0.0194 -0.0433,0.0342 -0.0752,0.0444 -0.0319,0.0102 -0.0712,0.0177 -0.11792,0.0222 -0.0467,0.005 -0.10425,0.007 -0.17261,0.007 -0.0706,0 -0.13045,-0.002 -0.17944,-0.007 -0.049,-0.005 -0.0894,-0.012 -0.12134,-0.0222 -0.0319,-0.0103 -0.0558,-0.0251 -0.0718,-0.0444 -0.016,-0.0194 -0.0285,-0.045 -0.0376,-0.0769 l -0.92627,-3.33936 -0.007,0 -0.85449,3.33936 c -0.007,0.0319 -0.0182,0.0575 -0.0342,0.0769 -0.0159,0.0194 -0.0387,0.0342 -0.0684,0.0444 -0.0296,0.0102 -0.0678,0.0177 -0.1145,0.0222 -0.0467,0.005 -0.10653,0.007 -0.17944,0.007 -0.0752,0 -0.13786,-0.002 -0.18799,-0.007 -0.0501,-0.005 -0.0911,-0.012 -0.12305,-0.0222 -0.0319,-0.0103 -0.0564,-0.0251 -0.0735,-0.0444 -0.0171,-0.0194 -0.029,-0.045 -0.0359,-0.0769 l -1.16895,-4.08448 c -0.0137,-0.0524 -0.0211,-0.0934 -0.0222,-0.12304 -0.001,-0.0296 0.008,-0.0524 0.0273,-0.0684 0.0194,-0.0159 0.0507,-0.0262 0.094,-0.0308 0.0433,-0.005 0.1014,-0.007 0.17432,-0.007 0.0706,10e-6 0.12646,0.002 0.16748,0.005 0.041,0.003 0.0724,0.01 0.094,0.0188 0.0216,0.009 0.0365,0.0216 0.0444,0.0376 0.008,0.016 0.0142,0.0365 0.0188,0.0615 l 0.99462,3.70508 0.003,0 0.94336,-3.69825 c 0.007,-0.0251 0.0154,-0.0461 0.0256,-0.0632 0.0102,-0.0171 0.0268,-0.0302 0.0496,-0.0393 0.0228,-0.009 0.0553,-0.0159 0.0974,-0.0205 0.0421,-0.005 0.0974,-0.007 0.16577,-0.007 0.0638,10e-6 0.1145,0.002 0.1521,0.007 0.0376,0.005 0.0678,0.0114 0.0906,0.0205 0.0228,0.009 0.0393,0.0222 0.0496,0.0393 0.0103,0.0171 0.0188,0.0382 0.0256,0.0632 l 1.01514,3.69825 0.007,0 0.97413,-3.70166 c 0.007,-0.0228 0.0137,-0.0427 0.0205,-0.0598 0.007,-0.0171 0.0211,-0.0302 0.0427,-0.0393 0.0216,-0.009 0.0524,-0.0159 0.0923,-0.0205 0.0399,-0.005 0.0928,-0.007 0.15894,-0.007 0.0683,10e-6 0.12247,0.003 0.16235,0.009 0.0399,0.006 0.0689,0.0165 0.0872,0.0325 0.0182,0.0159 0.0268,0.0387 0.0256,0.0684 -0.001,0.0296 -0.007,0.0706 -0.0188,0.12304 z"
       id="path4158"
       inkscape:connector-curvature="0"
       style="fill:#666666" />
    <path
       d="m 180.7059,572.34753 c 0,0.041 -0.002,0.0769 -0.007,0.10767 -0.005,0.0308 -0.0125,0.0564 -0.0239,0.0769 -0.0114,0.0205 -0.0245,0.0353 -0.0393,0.0444 -0.0148,0.009 -0.0313,0.0137 -0.0496,0.0137 l -2.12256,0 c -0.0524,0 -0.10197,-0.0177 -0.14868,-0.053 -0.0467,-0.0353 -0.0701,-0.0974 -0.0701,-0.18628 l 0,-3.94433 c 0,-0.0889 0.0234,-0.15096 0.0701,-0.18628 0.0467,-0.0353 0.0963,-0.053 0.14868,-0.053 l 2.09864,0 c 0.0182,0 0.0347,0.005 0.0496,0.0137 0.0148,0.009 0.0268,0.0239 0.0359,0.0444 0.009,0.0205 0.0165,0.0462 0.0222,0.0769 0.006,0.0308 0.009,0.0689 0.009,0.1145 0,0.041 -0.003,0.0769 -0.009,0.10767 -0.006,0.0308 -0.0131,0.0558 -0.0222,0.0752 -0.009,0.0194 -0.0211,0.0336 -0.0359,0.0427 -0.0148,0.009 -0.0313,0.0137 -0.0496,0.0137 l -1.72949,0 0,1.38769 1.48339,0 c 0.0182,10e-6 0.0348,0.005 0.0496,0.0154 0.0148,0.0103 0.0273,0.0245 0.0376,0.0427 0.0102,0.0182 0.0177,0.0433 0.0222,0.0752 0.005,0.0319 0.007,0.0695 0.007,0.1128 0,0.041 -0.002,0.0763 -0.007,0.10595 -0.005,0.0296 -0.012,0.0536 -0.0222,0.0718 -0.0103,0.0182 -0.0228,0.0313 -0.0376,0.0393 -0.0148,0.008 -0.0313,0.012 -0.0496,0.012 l -1.48339,0 0,1.58252 1.75341,0 c 0.0182,0 0.0347,0.005 0.0496,0.0137 0.0148,0.009 0.0279,0.0234 0.0393,0.0427 0.0114,0.0194 0.0194,0.0444 0.0239,0.0752 0.005,0.0308 0.007,0.0689 0.007,0.1145 z"
       id="path4160"
       inkscape:connector-curvature="0"
       style="fill:#666666" />
    <path
       d="m 184.61264,572.50134 c 0,0.0182 -0.003,0.0342 -0.0102,0.0478 -0.007,0.0137 -0.0217,0.0251 -0.0444,0.0342 -0.0228,0.009 -0.0547,0.016 -0.0957,0.0205 -0.041,0.005 -0.0957,0.007 -0.16406,0.007 -0.0592,0 -0.10767,-0.002 -0.14527,-0.007 -0.0376,-0.005 -0.0678,-0.012 -0.0906,-0.0222 -0.0228,-0.0103 -0.0405,-0.0245 -0.053,-0.0427 -0.0125,-0.0182 -0.0234,-0.041 -0.0325,-0.0684 l -0.40674,-1.04248 c -0.0478,-0.11849 -0.0974,-0.22729 -0.14868,-0.32642 -0.0513,-0.0991 -0.11223,-0.18456 -0.18286,-0.25634 -0.0706,-0.0718 -0.15381,-0.12761 -0.24951,-0.16748 -0.0957,-0.0399 -0.21078,-0.0598 -0.34522,-0.0598 l -0.39307,0 0,1.8833 c 0,0.0182 -0.005,0.0342 -0.0154,0.0478 -0.0103,0.0137 -0.0262,0.0245 -0.0479,0.0325 -0.0216,0.008 -0.0513,0.0148 -0.0889,0.0205 -0.0376,0.006 -0.0849,0.009 -0.14184,0.009 -0.057,0 -0.10425,-0.003 -0.14185,-0.009 -0.0376,-0.006 -0.0678,-0.0125 -0.0906,-0.0205 -0.0228,-0.008 -0.0387,-0.0188 -0.0478,-0.0325 -0.009,-0.0137 -0.0137,-0.0296 -0.0137,-0.0478 l 0,-4.09472 c 0,-0.0889 0.0234,-0.15096 0.0701,-0.18628 0.0467,-0.0353 0.0963,-0.053 0.14868,-0.053 l 0.93994,0 c 0.11166,0 0.20451,0.003 0.27857,0.009 0.074,0.006 0.1407,0.012 0.19995,0.0188 0.1709,0.0296 0.32186,0.0763 0.45288,0.14014 0.13102,0.0638 0.24097,0.1447 0.32984,0.24267 0.0889,0.098 0.15551,0.21021 0.19995,0.33667 0.0444,0.12647 0.0666,0.26604 0.0666,0.41871 -10e-6,0.14811 -0.0199,0.28084 -0.0598,0.39819 -0.0399,0.11735 -0.0974,0.22103 -0.17261,0.31103 -0.0752,0.09 -0.1652,0.16806 -0.27001,0.23414 -0.10482,0.0661 -0.22218,0.1219 -0.35206,0.16748 0.0729,0.0319 0.139,0.0723 0.19825,0.12133 0.0592,0.049 0.1145,0.10767 0.16577,0.17603 0.0513,0.0684 0.0997,0.14697 0.14526,0.23584 0.0456,0.0889 0.0911,0.18913 0.13672,0.30078 l 0.39649,0.97412 c 0.0319,0.082 0.0524,0.13957 0.0615,0.17261 0.009,0.033 0.0137,0.0587 0.0137,0.0769 z m -0.88525,-3.10693 c -1e-5,-0.17317 -0.0387,-0.31958 -0.11621,-0.43921 -0.0775,-0.11962 -0.20736,-0.20564 -0.38965,-0.25806 -0.057,-0.0159 -0.12134,-0.0273 -0.19312,-0.0342 -0.0718,-0.007 -0.16577,-0.0103 -0.28198,-0.0103 l -0.49561,0 0,1.49023 0.57422,0 c 0.15495,10e-6 0.28882,-0.0188 0.40161,-0.0564 0.11279,-0.0376 0.20679,-0.09 0.28199,-0.15723 0.0752,-0.0672 0.13045,-0.1464 0.16577,-0.23755 0.0353,-0.0911 0.053,-0.19026 0.053,-0.29736 z"
       id="path4162"
       inkscape:connector-curvature="0"
       style="fill:#666666" />
  </g>
  <path
     style="fill:#ffffff;fill-opacity:1;fill-rule:nonzero;stroke:none;display:inline"
     d="m 140.65411,129.36603 a 3.6902531,3.6902531 0 0 0 -3.30612,1.91263 c 0.75292,-0.95855 1.91071,-1.58475 3.22415,-1.58475 1.26988,0 2.3878,0.57098 3.14218,1.47546 a 3.6902531,3.6902531 0 0 0 -3.06021,-1.80334 z"
     id="path3975-7"
     inkscape:connector-curvature="0" />
</svg>
