<?xml version="1.0" encoding="UTF-8" standalone="no"?>
<!-- Created with Inkscape (http://www.inkscape.org/) -->

<svg
   xmlns:dc="http://purl.org/dc/elements/1.1/"
   xmlns:cc="http://creativecommons.org/ns#"
   xmlns:rdf="http://www.w3.org/1999/02/22-rdf-syntax-ns#"
   xmlns:svg="http://www.w3.org/2000/svg"
   xmlns="http://www.w3.org/2000/svg"
   xmlns:sodipodi="http://sodipodi.sourceforge.net/DTD/sodipodi-0.dtd"
   xmlns:inkscape="http://www.inkscape.org/namespaces/inkscape"
   version="1.1"
   id="svg1304"
   xml:space="preserve"
   width="287.68558"
   height="189.71855"
   viewBox="0 0 287.68558 189.71855"
   sodipodi:docname="7400_bin_string1.svg"
   inkscape:version="0.92.0 r15299"><metadata
     id="metadata1310"><rdf:RDF><cc:Work
         rdf:about=""><dc:format>image/svg+xml</dc:format><dc:type
           rdf:resource="http://purl.org/dc/dcmitype/StillImage" /><dc:title /></cc:Work></rdf:RDF></metadata><defs
     id="defs1308" /><sodipodi:namedview
     pagecolor="#ffffff"
     bordercolor="#666666"
     borderopacity="1"
     objecttolerance="10"
     gridtolerance="10"
     guidetolerance="10"
     inkscape:pageopacity="0"
     inkscape:pageshadow="2"
     inkscape:window-width="2560"
     inkscape:window-height="1017"
     id="namedview1306"
     showgrid="false"
     fit-margin-top="0"
     fit-margin-left="0"
     fit-margin-right="0"
     fit-margin-bottom="0"
     inkscape:zoom="3.1768865"
     inkscape:cx="113.46598"
     inkscape:cy="74.568679"
     inkscape:window-x="-5"
     inkscape:window-y="-5"
     inkscape:window-maximized="1"
     inkscape:current-layer="g1314" /><g
     id="g1312"
     inkscape:groupmode="layer"
     inkscape:label="7400_bin_string1"
     transform="matrix(1.3333333,0,0,-1.3333333,-6.1589935e-6,189.71977)"><g
       id="g1314"><g
   id="g1320"
   transform="matrix(1,0,0,-1,0,176.69437)"><path
     d="m 23.984,53.305 v -6 h 14.25 v 12 h -14.25 z"
     style="fill:#eef4d7;fill-opacity:1;fill-rule:nonzero;stroke:#000000;stroke-width:0.105844;stroke-linecap:butt;stroke-linejoin:miter;stroke-miterlimit:4;stroke-dasharray:none;stroke-opacity:1"
     id="path1322"
     inkscape:connector-curvature="0" /></g><g
   id="g1324"
   transform="matrix(1,0,0,-1,0,176.69437)"><path
     d="m 23.984,70.121 v -6.316 h 15 v 12.633 h -15 z"
     style="fill:#eef4d7;fill-opacity:1;fill-rule:nonzero;stroke:#000000;stroke-width:0.111414;stroke-linecap:butt;stroke-linejoin:miter;stroke-miterlimit:4;stroke-dasharray:none;stroke-opacity:1"
     id="path1326"
     inkscape:connector-curvature="0" /></g><g
   id="g1328"
   transform="matrix(1,0,0,-1,0,176.69437)"><path
     d="m 23.234,104.305 v -6.317 h 15 v 12.633 h -15 z"
     style="fill:#eef4d7;fill-opacity:1;fill-rule:nonzero;stroke:#000000;stroke-width:0.111414;stroke-linecap:butt;stroke-linejoin:miter;stroke-miterlimit:4;stroke-dasharray:none;stroke-opacity:1"
     id="path1330"
     inkscape:connector-curvature="0" /></g><g
   id="g1332"
   transform="matrix(1,0,0,-1,0,176.69437)"><path
     d="m 23.234,120.371 v -6.316 h 15 v 12.633 h -15 z"
     style="fill:#eef4d7;fill-opacity:1;fill-rule:nonzero;stroke:#000000;stroke-width:0.111414;stroke-linecap:butt;stroke-linejoin:miter;stroke-miterlimit:4;stroke-dasharray:none;stroke-opacity:1"
     id="path1334"
     inkscape:connector-curvature="0" /></g><g
   id="g1336"
   transform="matrix(1,0,0,-1,0,176.69437)"><path
     d="m 181.484,70.555 v -6.317 h 15 v 12.633 h -15 z"
     style="fill:#eef4d7;fill-opacity:1;fill-rule:nonzero;stroke:#000000;stroke-width:0.111414;stroke-linecap:butt;stroke-linejoin:miter;stroke-miterlimit:4;stroke-dasharray:none;stroke-opacity:1"
     id="path1338"
     inkscape:connector-curvature="0" /></g><g
   id="g1340"
   transform="matrix(1,0,0,-1,0,176.69437)"><path
     d="m 181.484,87.055 v -6.317 h 15 v 12.633 h -15 z"
     style="fill:#eef4d7;fill-opacity:1;fill-rule:nonzero;stroke:#000000;stroke-width:0.111414;stroke-linecap:butt;stroke-linejoin:miter;stroke-miterlimit:4;stroke-dasharray:none;stroke-opacity:1"
     id="path1342"
     inkscape:connector-curvature="0" /></g><g
   id="g1344"
   transform="matrix(1,0,0,-1,0,176.69437)"><path
     d="m 181.484,120.488 v -6.312 h 15 v 12.629 h -15 z"
     style="fill:#eef4d7;fill-opacity:1;fill-rule:nonzero;stroke:#000000;stroke-width:0.111414;stroke-linecap:butt;stroke-linejoin:miter;stroke-miterlimit:4;stroke-dasharray:none;stroke-opacity:1"
     id="path1346"
     inkscape:connector-curvature="0" /></g><g
   id="g1348"
   transform="matrix(1,0,0,-1,0,176.69437)"><path
     d="m 181.484,137.305 v -6.317 h 15 v 12.633 h -15 z"
     style="fill:#eef4d7;fill-opacity:1;fill-rule:nonzero;stroke:#000000;stroke-width:0.111414;stroke-linecap:butt;stroke-linejoin:miter;stroke-miterlimit:4;stroke-dasharray:none;stroke-opacity:1"
     id="path1350"
     inkscape:connector-curvature="0" /></g><g
   id="g1352"
   transform="matrix(1,0,0,-1,0,176.69437)" /><g
   id="g1356"
   transform="matrix(1,0,0,-1,0,176.69437)"><path
     d="m 23.984,87.055 v -6.317 h 15 v 12.633 h -15 z"
     style="fill:#d7e3f4;fill-opacity:1;fill-rule:nonzero;stroke:#000000;stroke-width:0.111414;stroke-linecap:butt;stroke-linejoin:miter;stroke-miterlimit:4;stroke-dasharray:none;stroke-opacity:1"
     id="path1358"
     inkscape:connector-curvature="0" /></g><g
   id="g1360"
   transform="matrix(1,0,0,-1,0,176.69437)"><path
     d="m 23.984,137.738 v -6.312 h 15 v 12.629 h -15 z"
     style="fill:#d7e3f4;fill-opacity:1;fill-rule:nonzero;stroke:#000000;stroke-width:0.111414;stroke-linecap:butt;stroke-linejoin:miter;stroke-miterlimit:4;stroke-dasharray:none;stroke-opacity:1"
     id="path1362"
     inkscape:connector-curvature="0" /></g><g
   id="g1364"
   transform="matrix(1,0,0,-1,0,176.69437)"><path
     d="m 181.484,103.555 v -6.317 h 15 v 12.633 h -15 z"
     style="fill:#d7e3f4;fill-opacity:1;fill-rule:nonzero;stroke:#000000;stroke-width:0.111414;stroke-linecap:butt;stroke-linejoin:miter;stroke-miterlimit:4;stroke-dasharray:none;stroke-opacity:1"
     id="path1366"
     inkscape:connector-curvature="0" /></g><g
   id="g1368"
   transform="matrix(1,0,0,-1,0,176.69437)"><path
     d="m 181.484,153.805 v -6.317 h 15 v 12.633 h -15 z"
     style="fill:#d7e3f4;fill-opacity:1;fill-rule:nonzero;stroke:#000000;stroke-width:0.111414;stroke-linecap:butt;stroke-linejoin:miter;stroke-miterlimit:4;stroke-dasharray:none;stroke-opacity:1"
     id="path1370"
     inkscape:connector-curvature="0" /></g><g
   id="g1372"
   transform="matrix(1,0,0,-1,0,176.69437)"><path
     d="M 23.496,46.742 H 39.18 V 60.015 H 23.496 Z"
     style="fill:none;stroke:#000000;stroke-width:1.59593105;stroke-linecap:butt;stroke-linejoin:miter;stroke-miterlimit:4;stroke-dasharray:none;stroke-opacity:1"
     id="path1374"
     inkscape:connector-curvature="0" /></g><g
   id="g1376"
   transform="matrix(1,0,0,-1,0,176.69437)"><path
     d="M 23.496,63.543 H 39.18 V 76.816 H 23.496 Z"
     style="fill:none;stroke:#000000;stroke-width:1.59593105;stroke-linecap:butt;stroke-linejoin:miter;stroke-miterlimit:4;stroke-dasharray:none;stroke-opacity:1"
     id="path1378"
     inkscape:connector-curvature="0" /></g><g
   id="g1380"
   transform="matrix(1,0,0,-1,0,176.69437)"><path
     d="M 23.496,80.348 H 39.18 v 13.27 H 23.496 Z"
     style="fill:none;stroke:#000000;stroke-width:1.59593105;stroke-linecap:butt;stroke-linejoin:miter;stroke-miterlimit:4;stroke-dasharray:none;stroke-opacity:1"
     id="path1382"
     inkscape:connector-curvature="0" /></g><g
   id="g1384"
   transform="matrix(1,0,0,-1,0,176.69437)"><path
     d="M 23.496,97.148 H 39.18 v 13.27 H 23.496 Z"
     style="fill:none;stroke:#000000;stroke-width:1.59593105;stroke-linecap:butt;stroke-linejoin:miter;stroke-miterlimit:4;stroke-dasharray:none;stroke-opacity:1"
     id="path1386"
     inkscape:connector-curvature="0" /></g><g
   id="g1388"
   transform="matrix(1,0,0,-1,0,176.69437)"><path
     d="M 23.496,113.949 H 39.18 v 13.27 H 23.496 Z"
     style="fill:none;stroke:#000000;stroke-width:1.59593105;stroke-linecap:butt;stroke-linejoin:miter;stroke-miterlimit:4;stroke-dasharray:none;stroke-opacity:1"
     id="path1390"
     inkscape:connector-curvature="0" /></g><g
   id="g1392"
   transform="matrix(1,0,0,-1,0,176.69437)"><path
     d="M 23.496,130.75 H 39.18 v 13.273 H 23.496 Z"
     style="fill:none;stroke:#000000;stroke-width:1.59593105;stroke-linecap:butt;stroke-linejoin:miter;stroke-miterlimit:4;stroke-dasharray:none;stroke-opacity:1"
     id="path1394"
     inkscape:connector-curvature="0" /></g><g
   id="g1396"
   transform="matrix(1,0,0,-1,0,176.69437)"><path
     d="M 23.496,147.555 H 39.18 v 13.27 H 23.496 Z"
     style="fill:none;stroke:#000000;stroke-width:1.59593105;stroke-linecap:butt;stroke-linejoin:miter;stroke-miterlimit:4;stroke-dasharray:none;stroke-opacity:1"
     id="path1398"
     inkscape:connector-curvature="0" /></g><g
   id="g1400"
   transform="matrix(1,0,0,-1,0,176.69437)"><path
     d="m 181.43,46.742 h 15.684 V 60.015 H 181.43 Z"
     style="fill:none;stroke:#000000;stroke-width:1.59593105;stroke-linecap:butt;stroke-linejoin:miter;stroke-miterlimit:4;stroke-dasharray:none;stroke-opacity:1"
     id="path1402"
     inkscape:connector-curvature="0" /></g><g
   id="g1404"
   transform="matrix(1,0,0,-1,0,176.69437)"><path
     d="m 181.43,63.543 h 15.684 V 76.816 H 181.43 Z"
     style="fill:none;stroke:#000000;stroke-width:1.59593105;stroke-linecap:butt;stroke-linejoin:miter;stroke-miterlimit:4;stroke-dasharray:none;stroke-opacity:1"
     id="path1406"
     inkscape:connector-curvature="0" /></g><g
   id="g1408"
   transform="matrix(1,0,0,-1,0,176.69437)"><path
     d="m 181.43,80.348 h 15.684 v 13.27 H 181.43 Z"
     style="fill:none;stroke:#000000;stroke-width:1.59593105;stroke-linecap:butt;stroke-linejoin:miter;stroke-miterlimit:4;stroke-dasharray:none;stroke-opacity:1"
     id="path1410"
     inkscape:connector-curvature="0" /></g><g
   id="g1412"
   transform="matrix(1,0,0,-1,0,176.69437)"><path
     d="m 181.43,97.148 h 15.684 v 13.27 H 181.43 Z"
     style="fill:none;stroke:#000000;stroke-width:1.59593105;stroke-linecap:butt;stroke-linejoin:miter;stroke-miterlimit:4;stroke-dasharray:none;stroke-opacity:1"
     id="path1414"
     inkscape:connector-curvature="0" /></g><g
   id="g1416"
   transform="matrix(1,0,0,-1,0,176.69437)"><path
     d="m 181.43,113.949 h 15.684 v 13.27 H 181.43 Z"
     style="fill:none;stroke:#000000;stroke-width:1.59593105;stroke-linecap:butt;stroke-linejoin:miter;stroke-miterlimit:4;stroke-dasharray:none;stroke-opacity:1"
     id="path1418"
     inkscape:connector-curvature="0" /></g><g
   id="g1420"
   transform="matrix(1,0,0,-1,0,176.69437)"><path
     d="m 181.43,130.75 h 15.684 v 13.273 H 181.43 Z"
     style="fill:none;stroke:#000000;stroke-width:1.59593105;stroke-linecap:butt;stroke-linejoin:miter;stroke-miterlimit:4;stroke-dasharray:none;stroke-opacity:1"
     id="path1422"
     inkscape:connector-curvature="0" /></g><g
   id="g1424"
   transform="matrix(1,0,0,-1,0,176.69437)"><path
     d="m 181.43,147.555 h 15.684 v 13.27 H 181.43 Z"
     style="fill:none;stroke:#000000;stroke-width:1.59593105;stroke-linecap:butt;stroke-linejoin:miter;stroke-miterlimit:4;stroke-dasharray:none;stroke-opacity:1"
     id="path1426"
     inkscape:connector-curvature="0" /></g><g
   id="g1428"
   transform="matrix(1,0,0,-1,0,176.69437)"><path
     d="m 68.301,55.145 c 0,2.226 -0.887,4.363 -2.461,5.941 -1.574,1.574 -3.711,2.457 -5.942,2.457 -4.636,0 -8.398,-3.758 -8.398,-8.398 0,-4.641 3.762,-8.403 8.398,-8.403 2.231,0 4.368,0.887 5.942,2.461 1.574,1.574 2.461,3.711 2.461,5.942 z"
     style="fill:none;stroke:#000000;stroke-width:2.11674309;stroke-linecap:butt;stroke-linejoin:miter;stroke-miterlimit:4;stroke-dasharray:none;stroke-opacity:1"
     id="path1430"
     inkscape:connector-curvature="0" /></g><text
   transform="matrix(1,0,0,-1,5.55695,119.51326)"
   style="font-variant:normal;font-weight:normal;font-size:11.93286514px;font-family:'CMU Typewriter Text';-inkscape-font-specification:CMUTypewriter-Regular;writing-mode:lr-tb;fill:#000000;fill-opacity:1;fill-rule:nonzero;stroke:none"
   id="text1434"><tspan
     x="0 6.2528214"
     y="0"
     sodipodi:role="line"
     id="tspan1432">1A</tspan></text>

<text
   transform="matrix(1,0,0,-1,5.55695,102.7116)"
   style="font-variant:normal;font-weight:normal;font-size:11.9328661px;font-family:'CMU Typewriter Text';-inkscape-font-specification:CMUTypewriter-Regular;writing-mode:lr-tb;fill:#000000;fill-opacity:1;fill-rule:nonzero;stroke:none"
   id="text1450"><tspan
     x="0 6.2528219"
     y="0"
     sodipodi:role="line"
     id="tspan1436">1B</tspan><tspan
     x="0 6.2528219"
     y="16.801641"
     sodipodi:role="line"
     id="tspan1438">1Y</tspan><tspan
     x="0 6.2528219"
     y="33.60331"
     sodipodi:role="line"
     id="tspan1440">2A</tspan><tspan
     x="0 6.2528219"
     y="50.404976"
     sodipodi:role="line"
     id="tspan1442">2B</tspan><tspan
     x="0 6.2528219"
     y="67.206596"
     sodipodi:role="line"
     id="tspan1444">2Y</tspan><tspan
     x="-6.0114198 0.24140188 6.4942236"
     y="83.935394"
     sodipodi:role="line"
     id="tspan1446">GND</tspan><tspan
     x="196.01929"
     y="-16.801655"
     id="tspan1448">V</tspan></text>

<text
   transform="matrix(1,0,0,-1,207.84564,117.12669)"
   style="font-variant:normal;font-weight:normal;font-size:8px;font-family:'CMU Typewriter Text';-inkscape-font-specification:CMUTypewriter-Regular;writing-mode:lr-tb;fill:#000000;fill-opacity:1;fill-rule:nonzero;stroke:none"
   id="text1454"><tspan
     x="0 4.1919999"
     y="0"
     sodipodi:role="line"
     id="tspan1452">cc</tspan></text>

<text
   transform="matrix(1,0,0,-1,201.57623,102.7116)"
   style="font-variant:normal;font-weight:normal;font-size:11.932868px;font-family:'CMU Typewriter Text';-inkscape-font-specification:CMUTypewriter-Regular;writing-mode:lr-tb;fill:#000000;fill-opacity:1;fill-rule:nonzero;stroke:none"
   id="text1468"><tspan
     x="0 6.2528229"
     y="0"
     sodipodi:role="line"
     id="tspan1456">4B</tspan><tspan
     x="0 6.2528229"
     y="16.801645"
     sodipodi:role="line"
     id="tspan1458">4A</tspan><tspan
     x="0 6.2528229"
     y="33.603313"
     sodipodi:role="line"
     id="tspan1460">4Y</tspan><tspan
     x="0 6.2528229"
     y="50.404984"
     sodipodi:role="line"
     id="tspan1462">3B</tspan><tspan
     x="0 6.2528229"
     y="67.206604"
     sodipodi:role="line"
     id="tspan1464">3A</tspan><tspan
     x="0 6.2528229"
     y="84.008202"
     sodipodi:role="line"
     id="tspan1466">3Y</tspan></text>

<text
   transform="matrix(1,0,0,-1,28.074403,119.51917)"
   style="font-variant:normal;font-weight:normal;font-size:11.9328661px;font-family:'CMU Typewriter Text';-inkscape-font-specification:CMUTypewriter-Regular;writing-mode:lr-tb;fill:#000000;fill-opacity:1;fill-rule:nonzero;stroke:none"
   id="text1472"><tspan
     x="0"
     y="0"
     id="tspan1470">1</tspan></text>

<text
   transform="matrix(1,0,0,-1,28.074403,102.71752)"
   style="font-variant:normal;font-weight:normal;font-size:11.932868px;font-family:'CMU Typewriter Text';-inkscape-font-specification:CMUTypewriter-Regular;writing-mode:lr-tb;fill:#000000;fill-opacity:1;fill-rule:nonzero;stroke:none"
   id="text1484"><tspan
     x="0"
     y="0"
     id="tspan1474">1</tspan><tspan
     x="0"
     y="16.801668"
     id="tspan1476">0</tspan><tspan
     x="0"
     y="33.603313"
     id="tspan1478">0</tspan><tspan
     x="0"
     y="50.404984"
     id="tspan1480">0</tspan><tspan
     x="0"
     y="67.206627"
     id="tspan1482">1</tspan></text>

<text
   transform="matrix(1,0,0,-1,185.85676,102.79579)"
   style="font-variant:normal;font-weight:normal;font-size:11.93286896px;font-family:'CMU Typewriter Text';-inkscape-font-specification:CMUTypewriter-Regular;writing-mode:lr-tb;fill:#000000;fill-opacity:1;fill-rule:nonzero;stroke:none"
   id="text1498"><tspan
     x="0"
     y="0"
     id="tspan1486">0</tspan><tspan
     x="0"
     y="16.801659"
     id="tspan1488">0</tspan><tspan
     x="0"
     y="33.603279"
     id="tspan1490">1</tspan><tspan
     x="0"
     y="50.404903"
     id="tspan1492">1</tspan><tspan
     x="0.28713706"
     y="67.217926"
     id="tspan1494">1</tspan><tspan
     x="0.29005665"
     y="84.019585"
     id="tspan1496">0</tspan></text>

<g
   id="g1316"
   transform="matrix(1,0,0,-1,0,176.69437)"><path
     d="M 38.891,35.547 H 181.047 V 175.551 H 38.891 Z"
     style="fill:none;stroke:#000000;stroke-width:2.28491902;stroke-linecap:butt;stroke-linejoin:miter;stroke-miterlimit:4;stroke-dasharray:none;stroke-opacity:1"
     id="path1318"
     inkscape:connector-curvature="0" /></g></g></g></svg>