<?xml version="1.0" encoding="UTF-8" standalone="no"?>
<svg viewBox="0 0 744.09448819 1052.3622047" xmlns="http://www.w3.org/2000/svg">
<defs>
<linearGradient>
<stop offset="0" stop-color="#0954d6"/>
<stop offset="1" stop-color="#4848cb" stop-opacity="0"/>
</linearGradient>
<linearGradient>
<stop offset="0" stop-color="#ff0"/>
<stop offset="1" stop-color="#fcffff" stop-opacity=".24706"/>
</linearGradient>
<linearGradient gradientTransform="matrix(1.03238,0,0,1.05684,-69.0166,12.57145)" gradientUnits="userSpaceOnUse" x1="344.65497" x2="526.1405" y1="853.10852" y2="850.41589">
<stop offset="0" stop-color="#666"/>
<stop offset="1" stop-color="#666" stop-opacity="0"/>
</linearGradient>
<radialGradient cx="1262.8374" cy="476.14212" gradientTransform="matrix(1,0,0,.67532,0,154.59161)" gradientUnits="userSpaceOnUse" r="207.33151">
<stop offset="0" stop-color="#fffaf7"/>
<stop offset="1" stop-color="#e7ed15" stop-opacity="0"/>
</radialGradient>
<radialGradient cx="311.28458" cy="369.99646" gradientTransform="matrix(2.7681,-.13919,4.5630016e-2,.90747,-560.09642,46.85688)" gradientUnits="userSpaceOnUse" r="303.10434">
<stop offset="0" stop-color="#fff"/>
<stop offset="1" stop-color="#ff0"/>
</radialGradient>
<radialGradient cx="311.28458" cy="369.99646" gradientTransform="matrix(2.7681,-.13919,4.5630016e-2,.90747,-560.09642,46.85688)" gradientUnits="userSpaceOnUse" r="303.10434">
<stop offset="0" stop-color="#917c6f"/>
<stop offset="1" stop-color="#917c6f" stop-opacity="0"/>
</radialGradient>
</defs>
<path d="m323.35289,994.13933c-13.3109-2.7704-25.5431-11.8952-27.2018-20.2915-.4491-2.2743-8.2415-10.0958-17.3163-17.381-14.38074-11.545-18.09244-13.4403-28.90205-14.7587-9.25124-1.1283-14.13552-3.106-19.22339-7.7836-5.88847-5.4137-6.45091-6.90681-4.11423-10.9209 2.3722-4.07518 1.80945-5.2954-4.55371-9.87385-7.87673-5.66741-9.17711-12.06478-3.78376-18.61381 2.89571-3.51626 2.84884-4.893-.36154-10.60057-2.95012-5.2451-3.12904-7.38436-.89291-10.67631 2.32048-3.41613 1.97195-4.92393-2.04772-8.85759-5.31116-5.19775-6.19364-12.08783-2.38592-18.62893 1.76691-3.03535 1.63776-6.30881-.45921-11.64046-2.62843-6.68272-2.39934-8.06179 2.31356-13.92229 4.82358-5.99831 4.95025-6.87327 1.62662-11.2359-6.30122-8.27084-4.55114-16.4921 5.35473-25.15576l8.95907-7.83542 1.47713-22.29151c.81248-12.2603.4399-32.01-.82797-43.88815-2.46996-23.14058-15.51694-82.51451-18.8734-85.88857-1.1158-1.12163-2.02873-3.57382-2.02873-5.44929 0-4.31391-5.28061-13.51297-20.96221-36.51742-6.84105-10.03555-18.38334-27.42339-25.64962-38.63958s-18.10108-26.29461-24.07741-33.50762c-11.28729-13.62303-23.8122-34.20247-33.17224-54.5046-2.99379-6.49359-10.35391-21.88821-16.35574-34.21028-12.93321-26.55224-18.76036-46.88938-22.09318-77.10576-9.11177-82.60997 6.22017-143.53027 49.58001-197.0027 19.78086-24.39434 56.66037-57.48497 78.72114-70.63365 36.25802-21.61058 62.95261-30.95822 106.23688-37.20104 71.1314-10.25916 110.9772-9.57965 150.5996,2.56825 88.8577,27.24299 152.7034,63.25885 185.9692,104.90674 15.0064,18.78758 29.3954,58.5427 39.2033,108.31389 7.8126,39.64629 7.8385,64.67814.1056,102.13902-8.9507,43.36019-11.675,51.18356-28.0751,80.62499-16.702,29.98345-22.1693,36.93305-52.688,66.97325-11.3949,11.21619-22.5021,22.80805-24.6827,25.75968s-7.9703,9.60805-12.866,14.79204-8.9014,10.22032-8.9014,11.19185-5.7323,12.81288-12.7383,26.3142-13.4695,27.30167-14.3633,30.6676-4.5344,12.88172-8.0901,21.14632c-5.8832,13.67457-20.7662,63.70232-25.7468,86.54572-1.1113,5.09661-2.4937,9.97044-3.0719,10.8306-1.5708,2.33668-2.3262,53.79466-.8103,55.18842 .7192.66116 5.7034.11393 11.0759-1.2161 17.7407-4.39192 26.2166,6.05506 17.4942,21.5625-3.1932,5.67724-3.1931,6.98952.0015,12.66919 2.821,5.01545 3.0087,7.4559.9005,11.70979-2.0217,4.07951-1.975,6.90138.1941,11.71571 2.259,5.01418 2.252,7.38161-.0338,11.30819-2.5238,4.3358-4.5811,15.25835-4.7984,25.4762-.0376,1.77095.6696,7.27656 1.5717,12.23462 1.531,8.41524 1.0385,9.60355-7.4073,17.87005-20.7701,20.32917-21.5869,20.8857-32.9359,22.44253-6.1241.84011-14.5677,2.84221-18.7636,4.44911-6.8536,2.6249-32.3686,22.711-54.2453,42.7035-4.4947,4.1075-12.0219,8.9323-16.7274,10.722-9.3163,3.5432-47.8412,5.7619-59.1561,3.4069zm80.159-28.8489c7.2366-3.4405 29.5177-24.5735 27.685-26.2585-.6604-.6071-28.0848-.4039-60.9433.4518-47.8724,1.2466-59.7425,2.1335-59.7425,4.4643 0,1.5996 1.1645,2.9085 2.588,2.9085 1.6343,0 2.0152,2.0982 1.0335,5.6942-1.5072,5.521-1.3907,5.5963 3.8329,2.4747 15.8642-9.4802 15.9644-9.5078 19.3339-5.3331 2.9322,3.6329 3.6565,3.6709 10.2488.5367 3.9015-1.8549 8.7219-3.3725 10.7119-3.3725 5.8231,0 4.1607,6.0416-2.5522,9.2752-4.2446,2.0446-5.2822,3.4772-3.3244,4.5896 1.6918.9613 6.6097-1.1633 12.1255-5.2386 10.395-7.6802 18.1241-7.6165 13.6251.1123-4.014,6.8955-1.6603,6.8483 8.7272-.1748 7.701-5.2069 9.9618-5.8706 12.0643-3.5415 1.976,2.1891 1.2092,4.0567-3.2456,7.9044-4.3384,3.7471-5.0788,5.4783-2.8895,6.756 3.7995,2.2176 3.3109,2.2745 10.7214-1.2487zm-69.652-6.7541c0-.5206-1.0507-.9466-2.335-.9466s-2.3348,1.023-2.3348,2.2734 1.0507,1.6762 2.3348.9466 2.335-1.7527 2.335-2.2734zm-43.3862-10.8362c5.632-1.987 4.4018-5.1369-2.0061-5.1369-6.3585,0-9.9488,3.3299-5.4059,5.0137 1.6132.598 3.11,1.1635 3.3259,1.2567s2.0548-.4168 4.0861-1.1335zm31.7117-14.6841c18.6207-.66634 53.4331-1.66251 77.3609-2.21355s51.246-2.07923 60.7069-3.39573c19.4061-2.70055 29.8524-7.34494 25.5053-11.33969-3.608-3.31552-98.9011-2.48136-175.2474,1.5339-31.4625,1.65469-60.88198,2.87672-65.37664,2.71555-6.81245-.24424-8.29608.50992-8.91767,4.53342-.90189,5.83799 9.99547,10.837 16.07484,7.37411 2.2896-1.30425 5.11243-1.33183 7.55741-.07388 2.47234,1.27212 5.5355,1.20459 8.35813-.18431 3.34882-1.64772 5.19833-1.36945 7.44603,1.12057 1.7122,1.89671 5.0608,2.84871 7.8336,2.22701 2.6636-.5973 20.0781-1.6311 38.6986-2.2974zm-44.3626-23.72575c3.7677-4.17378 9.3395-4.14376 9.3395.0502 0,2.76131 2.9977,3.0846 19.2628,2.07743 10.5944-.65608 23.8589-1.64264 29.4765-2.19241s44.4932-1.60175 86.3904-2.33763c45.0276-.79094 77.3701-2.21693 79.0953-3.48725 3.437-2.53103 3.9168-13.68296.668-15.52894-1.2379-.70333-8.8554.30902-16.9279,2.24959-16.4066,3.94427-31.6223,4.19084-157.1047,2.5455-44.739-.58665-84.14278-.16994-90.28522.95486-11.38743,2.08519-15.62823,6.5607-11.03642,11.64748 3.07772,3.40937 15.13651,3.96896 17.26599.80119 2.22539-3.31045 5.83727-2.54075 5.83727,1.2439 0,2.62583 1.52978,3.08164 6.7823,2.021 3.89062-.78566 7.43364-.40076 8.30992.90275 2.22828,3.31489 9.56396,2.77706 12.92626-.94767zm207.7292-27.52471c13.0916-3.29713 23.1607-11.14195 19.0967-14.8783-1.3481-1.23936-7.3914-.94588-15.8536.7699-10.3539,2.09921-43.2114,2.67909-135.2873,2.38751-127.88589-.40498-132.41813-.09205-128.67235,8.88222 1.61443,3.86814 9.82699,4.80524 12.12702,1.38372 2.08799-3.10606 5.83717-2.63555 5.83717.73249 0,3.86624 21.30661,3.49804 26.49121-.45792 3.25653-2.48474 4.03526-2.35782 5.38585.87812 1.444,3.45947 4.6887,3.68352 37.9694,2.62129 20.0148-.63886 48.9988-.3978 64.4089.5356 39.8824,2.41583 93.1338,1.01468 108.497-2.85463zm-213.07544-22.92139c1.58154-5.56035 5.34624-5.56035 5.34624,0 0,4.21775 1.5507,4.29299 88.1416,4.27704 48.4779-.00899 96.7627-.9277 107.2994-2.04161 21.7224-2.29651 34.0949-7.02577 32.849-12.55611-.935-4.15-2.7799-4.10551-20.4859.49397-14.9394,3.88072-50.8967,4.35989-91.0603,1.21336-65.9796-5.16901-88.368-5.86843-145.51106-4.546-26.27008.608-29.60466,1.37875-29.60466,6.84251 0,6.67046 7.19174,8.6978 12.05125,3.39711l4.21117-4.59345 1.48063,4.82986c1.69145,5.51798 3.70933,5.933 10.43672,2.14666 4.02307-2.26428 5.13009-2.09667 7.08892,1.07333 3.36689,5.44864 16.16455,5.06184 17.75699-.53667zm218.16774-18.22975c14.355-4.6185 19.6229-9.88664 16.0404-16.04105-1.6473-2.82979-4.1676-4.16934-6.607-3.51156-33.0612,8.91445-54.9931,10.5199-106.6785,7.80899-23.1152-1.2124-56.2122-2.73922-73.5486-3.39298-44.3756-1.6733-55.49957-2.48252-69.46794-5.05339-14.38628-2.64781-25.58407-1.10218-28.51695,3.9361-3.40777,5.85415.69397,9.3803 8.96785,7.70954 5.76861-1.16485 7.29633-.76335 7.29633,1.91722 0,4.36749 5.54902,4.36961 9.49023.00359 2.74003-3.03546 3.48293-2.86837 7.15644,1.60893 3.98776,4.86052 4.2823,4.89645 10.86112,1.32348 5.09262-2.76564 7.42465-3.06346 9.44492-1.20617 1.6548,1.52143 14.0989,2.72316 32.4811,3.1367 16.3892.36863 49.7617,2.06232 74.1611,3.76352 52.8325,3.68372 93.5731,2.93463 108.9195-2.00292zm-19.0267-20.79059c18.6646-2.16991 20.3679-2.80792 28.6022-10.71351 4.8158-4.62336 8.7558-10.42457 8.7558-12.89166 0-3.98333-.9802-4.34002-8.7558-3.18542-4.8156.71506-14.5008,2.77421-21.5227,4.57591-14.6348,3.75506-34.6546,4.14577-63.1165,1.23175-44.408-4.54653-75.805-6.54438-119.0788-7.57702-25.04151-.59764-50.96605-1.47028-57.61002-1.9393-11.52804-.81377-12.21024-.56372-14.93014,5.47327-4.15067,9.2129.13948,12.58475 9.52616,7.48687 7.78753-4.22927 11.64666-3.22855 11.64666,3.02023 0,4.91653 1.90216,5.14365 7.93238.94715 5.47046-3.80706 9.08007-2.09815 7.18204,3.40006-1.7377,5.03363 3.94058,5.64924 8.23445.89261 4.1358-4.58162 9.33947-3.98355 9.33947,1.07333 0,6.88933 10.6848,5.70271 14.4971-1.60999 1.6926-3.24672 4.6393-5.9032 6.5483-5.9032 3.2515,0 3.3402,1.26134.6893,9.80864-.9151,2.9506 6.4387,3.70064 59.2403,6.04175 33.1568,1.47017 62.9118,2.92195 66.1223,3.22622 7.0442.6675 20.2313-.2807 46.6975-3.35769zm1.2411-27.94973c.8952-.8237 2.1736-14.34746 2.8408-30.05295 1.0485-24.67712 2.7217-34.09462 12.3191-69.34152 6.1082-22.43239 14.8984-49.70066 19.5338-60.59627s8.4279-21.22864 8.4279-22.96229c0-5.95275 32.2092-64.5628 41.2031-74.97585 4.9482-5.72895 18.2739-19.42724 29.6127-30.44059 29.0766-28.24231 42.7529-45.92154 58.2452-75.29304 12.4741-23.64941 14.0925-28.51403 21.5976-64.91497 9.6956-47.02503 9.97-59.838 2.2122-103.29883-7.8779-44.13363-20.3365-82.35924-33.0297-101.34173-13.4331-20.08894-50.8583-50.65648-80.1481-65.46218-7.0631-3.57027-17.8847-9.16163-24.0483-12.42523-12.2581-6.49072-45.121-18.65286-83.3562-30.84903l-24.5161-7.82013-45.5457.11246c-73.5389.18157-121.92937,10.55414-167.24897,35.85018-21.30776,11.89334-55.30229,38.80538-71.76241,56.81131-13.14267,14.37704-15.1843,17.72637-10.80496,17.72637 5.75241,0 1.35933,6.66209-9.3395,14.16336-12.84256,9.00426-15.47027,13.51124-4.96584,8.51709 6.41344-3.0491 9.63559-2.60868 9.63559,1.31702 0,.99853-5.77884,5.21417-12.84184,9.36807s-12.84184,7.9817-12.84184,8.50623 3.29287.34822 7.31739-.3918c10.39468-1.91133 7.90192,3.11148-4.98246,10.03938-9.49963,5.10788-16.49925,12.98188-9.07439,10.20787 1.78044-.66519 5.07589-1.88846 7.32317-2.71837 8.04397-2.97053 4.17369,4.7665-5.25346,10.50213-11.14864,6.78306-11.78325,8.60264-2.33483,6.69472 9.34694-1.88743 8.89435,1.38525-1.16751,8.44102-8.82548,6.18885-11.34407,11.51723-3.65575,7.73429 13.69046-6.73619 15.81313,1.22252 2.48834,9.32956-9.40919,5.72475-13.00083,11.7598-5.25346,8.82749 10.41545-3.94215 12.74459-3.8944 11.88235.24354-.4657,2.235-4.76204,5.99558-9.54742,8.35689-8.49151,4.19009-12.58788,8.99895-9.82751,11.53679 .75518.69433 4.62195-.4518 8.59268-2.54699 5.29114-2.79185 7.90161-3.17127 9.77259-1.42034 2.53355,2.37098 1.77145,3.17683-14.64603,15.48591-2.74034,2.05458-4.98246,4.71105-4.98246,5.90325 0,3.27751 6.04591,2.5963 9.3395-1.0523 1.59864-1.77098 4.35406-3.21996 6.12314-3.21996 6.11198,0 3.18168,6.11034-6.46237,13.47542-11.38372,8.69357-10.65063,14.45539 1.0077,7.92007 8.93729-5.01002 11.00597-5.23233 11.00597-1.1828 0,1.67176-4.20281,6.09989-9.33951,9.84026s-9.3395,8.1685-9.3395,9.84027c0,3.89541 1.19694,3.82404 8.37402-.49949 4.61679-2.78114 6.47435-2.97827 8.67373-.92045 2.18523,2.04464.87958,4.0422-5.95713,9.11385-4.81573,3.57242-8.7558,8.33356-8.7558,10.58034 0,5.13074 1.9768,5.08667 9.33951-.2082 3.21048-2.3088 7.15055-4.21929 8.7558-4.24554 5.7589-.0942 2.74994,5.79829-6.42088,12.57398-9.08626,6.71319-11.17754,11.44758-7.44385,16.85136 1.32537,1.91831 4.23275.81478 10.634-4.03628 6.49056-4.91875 9.49663-6.04485 11.41892-4.27756s-.27193,4.83067-8.3349,11.63641c-10.95342,9.24562-13.74032,14.43042-7.75656,14.43042 1.75319,0 5.85895-1.93198 9.12415-4.29328 6.13728-4.43843 11.03725-5.57836 11.03725-2.56774 0,.94904-3.67743,5.0025-8.17209,9.00766s-8.17209,9.0246-8.17209,11.15431c0,5.12559 1.50593,4.89514 9.76536-1.49443 11.80398-9.13166 13.71853-5.24476 3.86398,7.84461-4.37542,5.81172-5.82126,14.6951-2.39181,14.6951 1.04394,0 4.91793-2.89796 8.60899-6.43992 5.84562-5.60968 12.84173-8.54347 12.84173-5.38516 0,.58011-3.71831,5.53337-8.26304,11.00726-9.295,11.19539-9.14056,14.31742.36804,7.44089 8.94534-6.46907 12.90358-2.41591 6.01112,6.1551-6.97639,8.67531-6.44802,12.10634 1.03135,6.69739 7.24811-5.2417 11.5238-5.6554 13.34543-1.29124 1.39433,3.34069-2.88549,8.29032-10.34008,11.95822-2.46821,1.21446-4.48764,3.6231-4.48764,5.35254 0,4.19347 1.62455,3.96971 8.78749-1.2104 8.65834-6.26156 12.43137-2.00484 5.67271,6.39981-8.1212,10.09895-5.65485,15.3863 3.05139,6.54159 8.58546-8.72206 11.70768-1.58966 3.50224,8.0008-8.05409,9.41373-4.46782,16.58615 5.18522,10.36999 9.52905-6.13632 11.93252-4.12101 6.22337,5.21822-5.714,9.34703-4.51531,13.19452 2.80188,8.99326 7.10254-4.07801 9.78765-.98241 5.26016,6.06421-3.31455,5.15862-3.45237,6.70534-.85408,9.58363 2.80734,3.10997 3.6126,2.98802 8.57585-1.29878 7.07076-6.10714 9.88956-3.48902 4.78951,4.44861-4.18319,6.51064-5.31912,15.16588-1.99032,15.16588 1.08513,0 3.87472-1.93197 6.19901-4.29327 3.88412-3.94583 10.50702-5.90528 10.50702-3.10859 0,.65158-2.32305,4.89556-5.16219,9.43106-4.42993,7.07664-4.70991,8.74743-1.9737,11.77861 2.91832,3.23281 3.71305,3.07023 9.37605-1.91784 3.40302-2.99753 6.91796-5.45005 7.81076-5.45005 3.47715,0 1.38132,8.12258-3.04634,11.80652-4.60987,3.8356-6.47053,11.80653-2.75593,11.80653 1.05261,0 4.19775-2.41498 6.98919-5.36663 9.47516-10.01875 13.3982-5.07103 5.10625,6.43996-8.38704,11.643-3.71894,19.36808 5.83726,9.65984 8.68188-8.81997 11.53919-1.79029 3.49419,8.59697-2.57279,3.32186-4.03639,7.57649-3.25251,9.4546 1.79789,4.30758 3.0196,4.28073 8.38538-.18368 6.7341-5.60305 10.15323-.61 4.28169,6.25269-4.60719,5.38482-6.50852,14.58799-2.98554,14.45071 .96311-.03762 3.79069-1.48655 6.28346-3.21998 9.20117-6.39843 11.56459-1.0952 3.63975,8.16726-4.20198,4.91125-6.4922,14.44078-3.47064,14.44078 .65948,0 3.23846-1.17098 5.73103-2.60216 7.37727-4.23571 8.18882-.21411 1.56757,7.76704-9.79427,11.80565-7.06291,20.95567 3.24424,10.86865 11.34934-11.10686 12.98834-2.20562 2.10017,11.40627-7.5919,9.49117-7.41805,16.43736.25179,10.05584 2.36002-1.96351 5.36186-2.96148 6.67092-2.21768 2.91718,1.65766 1.18847,6.22659-6.38103,16.86474-3.86749,5.43512-5.01291,8.85062-3.4501,10.2875s3.33179,1.05166 5.32831-1.16009c3.10012-3.43431 9.42168-4.54981 9.42168-1.66252 0,.90656-2.62678,5.20219-5.83727,9.54591s-5.83716,10.03069-5.83716,12.63759c0,4.45596.25582,4.52708 4.26991,1.18715 2.34845-1.95399 4.97513-3.55267 5.83717-3.55267 3.6512,0 1.12735,9.40334-4.26992,15.90904-3.21038,3.86973-5.83716,8.80369-5.83716,10.96419 0,3.59347.46034,3.53048 5.40398-.73937 2.97211-2.56706 6.12427-4.66743 7.00457-4.66743 3.83714,0 1.04694,8.49468-5.33893,16.2541-6.93376,8.42503-10.12887,17.4701-4.26775,12.08159 4.88418-4.49051 9.10103-3.00248 8.37712,2.95609-.62655,5.15759.07867,5.5891 10.41865,6.37391 10.89522.82698 11.09062.73197 11.09062-5.39242 0-3.42871 1.0775-8.83963 2.3944-12.0242s2.8467-24.74064 3.3994-47.90246 1.6998-64.81306 2.5492-92.5584c1.7043-55.6767-.263-76.15072-9.3848-97.67213-3.00253-7.08392-8.37585-20.12475-11.94065-28.97964s-17.81491-36.86853-31.66673-62.25255c-23.76357-43.54791-29.26707-55.19124-43.01544-91.00496-3.1247-8.13959-8.34605-18.97988-11.6031-24.08955-5.50773-8.6405-5.81166-10.5332-4.3461-27.06022 1.53009-17.25526 1.86107-18.03415 11.42718-26.89314 10.65743-9.86956 17.58696-11.38631 26.3218-5.76141 12.56455,8.09108 22.20891,38.6698 15.79362,50.07561-4.51036,8.01871-11.86408,10.40105-17.53679,5.68119-6.28584-5.22994-10.29363-20.28901-7.31605-27.48926 3.79544-9.17794 7.21261-6.90946 7.21261,4.78801 0,10.59422 3.52794,15.102 11.81937,15.102 7.87776,0-7.47462-39.22905-16.36803-41.82415-5.85348-1.70805-14.6262,2.90186-20.07705,10.55022-3.15918,4.4329-3.25715,6.46843-.69593,14.45992 1.63942,5.11542 3.12511,14.6137 3.30154,21.10728 .1881,6.92549 2.99379,18.46248 6.78665,27.90632 3.55623,8.85488 6.98609,18.78305 7.62183,22.0626s3.04851,6.89396 5.36145,8.03204 4.95375,5.20125 5.86823,9.02926 11.16888,23.88029 22.78736,44.56063 23.72145,42.41273 26.89508,48.2942 10.62461,16.51618 16.55735,23.6327c27.4125,32.88178 28.7435,40.45431 25.283,143.84483-.8693,25.97429-2.1658,65.09683-2.8811,86.93887s-1.8522,42.8591-2.5263,46.70452c-1.0608,6.05052-.4049,7.27857 4.8723,9.12318 3.3538,1.17235 14.6978,2.13238 25.2088,2.13333s30.5919,1.00284 44.6245,2.22624c30.6909,2.67571 32.2119,1.91351 33.2311-16.65274 .3745-6.82455 1.7729-29.31306 3.1073-49.97439s2.9085-47.22608 3.4982-59.03268 1.6921-34.02423 2.4499-49.37262c1.5161-30.70576 5.4344-48.52139 12.2124-55.52725 2.4364-2.51828 11.8735-18.10255 20.9715-34.63167s20.1374-35.53487 24.5321-42.23501c11.1119-16.94092 50.487-106.76098 54.4372-124.17887 1.7888-7.88768 4.7808-17.04967 6.6488-20.35996s4.1215-12.38874 5.0078-20.17437 3.6705-17.90437 6.1872-22.48612c6.6581-12.12133 8.3739-37.49686 3.0413-44.97931-2.8582-4.01041-6.0941-5.72283-10.8147-5.72283-7.4207,0-8.1155,1.37015-3.5173,6.93694 4.2328,5.12446 2.9165,30.39984-1.9379,37.2113-4.3447,6.0963-11.8936,6.74259-19.7397,1.68996-5.0756-3.26847-5.6495-3.27044-7.6243-.02631-2.9208,4.79853-10.1891,8.10242-14.4881,6.58573-4.4812-1.58093-11.3642-20.26329-10.3747-28.15975 .4433-3.53792 2.3576-6.2356 4.7168-6.64672 3.3417-.58238 4.0815,1.45514 4.6698,12.86146 .6141,11.90818 1.2659,13.5535 5.3688,13.5535 6.3045,0 7.2014-8.5398 2.469-23.50657-4.5403-14.35869-8.6709-18.3529-18.98-18.3529-5.4737,0-8.0052-.99437-8.0052-3.14445 0-5.13289 8.7077-8.21122 16.3231-5.7705 10.7256,3.43752 15.9329,9.95227 19.0518,23.83535 3.2148,14.31 7.2502,17.58781 6.1702,5.01194-.5213-6.07074.2528-8.15109 3.2437-8.71607 6.2157-1.17415 8.9373,5.97412 6.3326,16.63208-1.5795,6.46323-1.5034,10.04159.2478,11.65159 4.4038,4.04878 6.5774-2.72552 5.3631-16.71483-.9092-10.47485-2.3193-14.11628-6.9832-18.0331-3.7526-3.1515-7.4373-4.44289-10.2965-3.6086-5.555,1.62097-8.4878-4.16094-4.4049-8.68397 3.6303-4.02148 11.468-3.99474 17.2951.05896 4.001,2.78338 4.8231,2.66181 7.7207-1.14158 5.7615-7.56247 18.8205-3.61654 26.6687,8.05823 4.1697,6.20299 4.6657,9.25541 3.3402,20.56112-.856,7.30221-3.5828,19.55566-6.0595,27.2299-8.7546,27.12762-18.3136,59.21626-22.0246,73.93503-2.0666,8.19637-6.2716,20.27121-9.3445,26.833s-9.4454,20.14144-14.1611,30.17699-11.1156,24.71017-14.222,32.61031-10.1588,21.42395-15.6721,30.05295c-16.5669,25.92915-34.2529,62.52702-36.7297,76.00502-1.2805,6.96839-2.2954,22.32965-2.255,34.13625 .1804,52.90195-4.3266,123.82883-10.2988,162.07123-4.6334,29.66995-4.5844,33.78867.4182,35.11384 5.8966,1.56191 41.924.58274 43.8526-1.1919zm-147.7606-277.02886c-1.281-1.47581-4.0248-5.7543-6.0976-9.50775s-5.876-7.43943-8.4519-8.19108c-3.5809-1.04492-4.5488-2.97567-4.1117-8.20201 .533-6.37156.1137-6.78587-6.1796-6.1053-5.7799.62504-6.4927.16168-4.9532-3.21995 3.7567-8.25223 3.8095-13.13858.2269-21.02173-2.0344-4.47647-3.6989-10.0713-3.6989-12.43299 0-3.66213.5404-3.8816 3.673-1.49142 2.02,1.54139 5.7586,6.56126 8.3078,11.15526 3.8114,6.86848 5.2332,7.89627 8.0014,5.78402 4.2382-3.23383 4.1834-10.12301-.1358-17.0695-1.8352-2.95163-3.3741-7.05708-3.4195-9.12321-.143-6.4908 6.8255-4.08789 10.8943,3.75661 4.3358,8.3591 5.8009,8.9858 10.0368,4.29329 3.7301-4.13217 6.7868-4.09307 8.5408.10921 .8019,1.92151-.8943,5.5642-4.0116,8.615-3.9736,3.88855-4.7128,5.91874-2.7969,7.68023s4.331,1.14583 9.136-2.32911c8.4458-6.10787 10.2235-2.03042 3.0201,6.92721l-5.3318,6.63026 8.2697,14.0899c4.5484,7.74945 7.789,15.29741 7.2016,16.77322-2.0975,5.26885-6.622,2.44123-13.521-8.44999-8.1115-12.80558-11.4592-14.57265-15.2548-8.0523-2.2812,3.91895-1.6971,6.56352 3.5593,16.11526 5.7669,10.47908 6.2254,15.95017 1.3367,15.95017-1.0511,0-2.9593-1.20748-4.2401-2.6833zm-1.3526-45.44964c-.7774-1.86253-2.4263-3.38641-3.6643-3.38641-3.0002,0-5.619,7.92752-3.6074,10.91998 2.3697,3.52514 9.0142-3.35868 7.2717-7.53357zm-81.86984-159.84375c-5.3219-5.40654-4.55712-31.37363.92398-31.37363 2.69874,0 3.34056,2.21645 2.79764,9.65988-.43949,6.02431.58164,11.26762 2.71329,13.93171 3.34687,4.18283 3.47746,4.15192 6.27015-1.48313 6.17217-12.45434-7.47865-38.20826-20.25215-38.20826-2.89448,0-5.91201.966-6.7056,2.14664-2.18172,3.24547-8.17209,2.57108-8.17209-.91999 0-5.19024 6.96452-9.8132 14.78364-9.8132 9.18981,0 19.08618,7.94496 25.12548,20.17134 5.65444,11.44711 5.57505,20.91134-.26367,31.43353-5.22857,9.42248-10.88941,10.887-17.22067,4.45511zm38.37894-1.89022c-4.4021-3.27719-4.9217-5.54123-4.3029-18.75196 .8617-18.39899 4.9462-19.73838 6.5409-2.14489 .8647,9.54061 2.0754,12.87984 4.6697,12.87984 8.5171,0 4.2929-28.51537-5.7983-39.14194-5.5512-5.84571-5.7477-5.88139-12.70971-2.30826-9.0747,4.65748-11.87368,1.1068-4.67843-5.9348 6.56303-6.42269 10.30614-6.52078 19.83244-.51956 8.6966,5.47865 15.0284,21.05248 15.0284,36.96448 0,17.01283-8.9412,26.13446-18.5821,18.95709zm35.4673-2.29755c-5.7608-3.36173-9.7039-24.88385-6.1285-33.45021 .7796-1.86755 2.9565-3.39553 4.8378-3.39553 2.7448,0 3.1482,2.22634 2.0421,11.26986-1.5187,12.41558 2.4968,20.3768 9.1024,18.04639 5.1051-1.80109 4.6088-17.43511-.9081-28.6064-5.3319-10.79669-11.8856-14.45916-22.5744-12.61559-5.8207,1.00395-7.9263.59997-7.9263-1.52082 0-8.16238 17.6421-11.04562 27.7518-4.53545 8.3578,5.38212 14.1662,19.35716 14.2248,34.22429 .0428,10.89306-.8392,13.81146-5.3527,17.70977-5.6771,4.90334-10.1342,5.75335-15.0689,2.87369zm67.2376-4.16442c-6.0514-4.50509-7.7624-16.76744-4.2113-30.18085 2.2379-8.45319 7.0812-13.39554 10.2616-10.47154 .6855.6302-.5141,6.91408-2.6657,13.96417-3.0346,9.94321-3.3183,13.83829-1.2649,17.36576 3.5295,6.06313 6.7762,5.73697 9.5453-.95889 4.0513-9.79672 2.758-25.55221-2.6129-31.82964-4.2047-4.91447-6.0364-5.51763-13.0713-4.3043-7.1319,1.23007-8.0743.89915-7.3455-2.57963 .4597-2.19492 3.7557-4.9348 7.3243-6.08861 9.1788-2.9678 21.9269,3.5449 24.6433,12.58966 2.2775,7.58351-1.213,35.09155-5.0053,39.44605-5.1412,5.90346-10.3853,6.92815-15.5976,3.04782zm-34.769-2.33288c-3.6615-3.36636-4.0523-5.65505-2.4741-14.48982 1.0309-5.77061 1.937-11.69951 2.0136-13.17532s1.8598-2.6833 3.9629-2.6833c3.2477,0 3.6028,1.72818 2.3576,11.46958-1.5778,12.34206-.269,15.64918 4.6945,11.86199 4.3107-3.28917 4.0321-24.0936-.4288-32.02473-3.1084-5.52631-4.844-6.33331-13.6202-6.33331-5.5318,0-10.7492-.63563-11.5942-1.41247-3.3052-3.03868 4.1297-7.17409 12.898-7.17409 7.0919,0 10.8159,1.45517 16.0582,6.27479 6.3061,5.79769 6.8251,7.47516 6.8251,22.06207 0,11.30719-1.1212,17.29346-3.9507,21.09486-7.1049,9.5449-10.336,10.41916-16.7419,4.52975zm67.3901-2.44212c-5.6195-5.16641-6.6864-25.84192-1.5364-29.77149 4.5776-3.49274 6.4644-.51061 4.8093,7.60082-1.8317,8.97692.5052,17.87739 4.6938,17.87739 7.6529,0 8.567-25.14651 1.3118-36.0871-3.9542-5.96276-5.8897-6.99996-12.0179-6.43992-9.3422.85374-11.3414-3.78304-3.1167-7.22839 4.4712-1.87297 7.9696-1.97174 12.6242-.35645 5.2263,1.81367 7.4427,1.48728 11.7685-1.73314 6.4006-4.765 15.9925-5.1202 22.6416-.83845 6.3354,4.07973 14.2005,21.08352 15.9693,34.52462 1.8611,14.14169-2.0767,21.14397-12.4069,22.06191-9.6137.85428-13.8451-2.28294-15.7642-11.68789-1.1863-5.81387-2.1519-6.85635-4.612-4.9792-1.7115,1.30582-4.3003,5.68533-5.7529,9.73224-2.2651,6.3096-8.0318,11.61832-12.6208,11.61832-.7265,0-3.4224-1.93197-5.9907-4.29327zm49.4971-17.17312c-.3865-5.31293-3.5387-14.97281-7.0047-21.4664-5.8476-10.95548-6.861-11.78249-14.0582-11.4732-4.266.18332-8.351.88012-9.078,1.54844-1.2084,1.11094 3.2639,19.30124 5.7854,23.53115 .5901.98992 2.2669-.38279 3.726-3.05044 5.2791-9.65067 8.8405-7.57411 7.1464,4.16678-2.055,14.24283-.3759,17.94346 7.7517,17.08396 6.0827-.64325 6.3957-1.20798 5.7314-10.34029zm10.2745-71.28528c-2.0167-2.82967-4.3319-8.47531-5.1451-12.54588s-4.1969-12.46674-7.5194-18.65818c-3.7785-7.04111-5.205-11.97173-3.8089-13.16509 1.2275-1.04936 10.6374-2.54046 20.9109-3.31355l18.679-1.40561 7.7254,18.16905c4.2489,9.99298 9.2398,19.32455 11.0907,20.73681s3.3653,3.88005 3.3653,5.48397c0,3.05149-3.6112,4.0912-21.014,6.05031-5.7788.65055-12.7817,1.77012-15.5621,2.48792-3.71.95781-6.0309-.06396-8.7218-3.83975zm21.2581-7.32096c4.3321-1.06789 4.933-2.33681 3.7982-8.02059-2.2246-11.14291-9.6133-24.99843-13.3308-24.99843-1.915,0-6.14.92918-9.3889,2.06485-5.7565,2.01218-5.82,2.25688-2.4869,9.59094 1.8812,4.13934 3.4204,10.29407 3.4204,13.67717s.7005,6.79508 1.5565,7.58219c1.9103,1.75624 9.533,1.80442 16.4315.10387zm31.5393-1.35608c-1.3266-1.47582-3.1962-6.54726-4.1547-11.26986-2.1085-10.38808-7.0771-21.75364-10.3141-23.59294-3.3742-1.91727-2.942-9.65385.5484-9.8134 1.6051-.07337 9.7146-.16546 18.0209-.20461 13.8256-.0652 15.5567.44511 20.4798,6.03667 2.9578,3.35934 5.7855,8.03986 6.2836,10.40116s1.9654,9.12001 3.2605,15.01935c1.6133,7.34934 1.5899,11.57307-.0742,13.4165-3.2458,3.59562-30.8196,3.60138-34.0502.00713zm23.2771-10.2299c-.4093-1.64908-1.6075-7.24734-2.6628-12.44055-2.5296-12.44862-6.4429-15.87522-16.1018-14.09916-5.8714,1.07959-7.2203,2.18458-5.935,4.86187 .9148,1.90562 3.2736,8.01009 5.2417,13.56549 2.4739,6.98295 5.063,10.37797 8.388,10.99892 7.6876,1.4357 11.8719.34463 11.0699-2.88657zm-108.2115-41.03911c-1.9871-2.79416-4.3671-7.27308-5.2889-9.95316s-5.0238-8.95901-9.1153-13.95316-9.4064-11.89777-11.811-15.34137c-4.2259-6.05192-4.2298-6.35671-.1146-9.12322 2.3416-1.57417 7.6027-2.86212 11.6914-2.86212s10.6125-.58447 14.4974-1.29881c6.6616-1.2249 7.7317-.40052 18.8088,14.48982 6.46,8.68374 13.657,17.66576 15.9935,19.96003 6.0735,5.96387 9.9069,12.40623 10.0025,16.81019 .066,3.03592-1.6933,3.7467-8.673,3.50397-4.8157-.16747-14.0708.40485-20.567,1.27181-10.7994,1.44127-12.1206,1.14112-15.4238-3.50398zm27.5729-8.96863c1.9622-1.80411-12.4321-25.92501-18.6524-31.25597-4.8697-4.1736-7.4372-4.83323-14.2433-3.65935-10.3566,1.78628-10.4887,4.93679-.7142,17.02423 4.1736,5.1612 9.3276,12.33337 11.4533,15.93816 3.6071,6.11703 4.437,6.43553 12.4431,4.77544 4.7179-.97828 9.089-2.24842 9.7135-2.82251zm34.6477,5.54312c-11.6139-.76453-11.7698-.8726-18.6209-12.9029-3.7998-6.67254-11.4736-17.83283-17.0528-24.80062-12.6277-15.77068-11.8588-19.82542 3.3949-17.90322 5.9327.74762 13.2303,1.3593 16.217,1.3593 4.1291,0 7.9004,3.47172 15.7397,14.48982 5.6702,7.96939 12.6438,16.4195 15.4969,18.77802 5.9647,4.9309 11.7138,14.36313 11.7138,19.21822 0,3.44321-.672,3.48723-26.8886,1.76138zm10.5445-11.46892c0-1.17044-5.9061-9.34246-13.1247-18.16003-11.0011-13.4379-14.2123-16.03194-19.8464-16.03194-3.6971,0-6.7218.35509-6.7218.78907 0,.84432 20.2028,28.89404 23.3964,32.48385 2.5402,2.85525 16.2965,3.63105 16.2965.91905zm-93.6737,612.95923c7.741-49.94691 14.0443-180.19042 8.6401-178.52854-6.0841,1.87099-8.5358,19.86646-10.8631,79.73446-1.3333,34.29902-3.2475,76.85164-4.254,94.56143-1.649,29.01682-1.4094,37.20195 1.0237,34.96504 .4428-.4071 2.8968-14.2367 5.4533-30.73239zm-131.263,13.47714c-.6477-1.47577-1.1778-.26833-1.1778,2.68332s.5301,4.15909 1.1778,2.68332 .6477-3.89076 0-5.36664zm3.1808-82.10899c.7074-45.40747.1488-57.65635-2.2918-50.25075-2.0888,6.33808-3.5167,43.0934-2.7863,71.71719 .8133,31.87367 4.4893,16.33463 5.0781-21.46644zm3.0082-97.40327c.0949-13.72534-.9929-28.33611-2.4173-32.46839s-3.237-10.8942-4.0277-15.02649c-1.4715-7.69048-7.2762-16.6788-9.469-14.66271-.6722.61802.3937,4.67934 2.3688,9.02515 3.0747,6.76556 5.1763,28.36801 8.1711,83.98996 .0635,1.18059 1.2599.33554 2.6585-1.8779 1.4056-2.22434 2.6202-15.18659 2.7156-28.97962z"/>
<path d="m106.62281,12.127h1.96561v10.06095h-1.96561z" fill="#ff0"/>
</svg>
