<?xml version="1.0" encoding="UTF-8" standalone="no"?>
<!-- Created with Inkscape (http://www.inkscape.org/) -->
<svg
   xmlns:dc="http://purl.org/dc/elements/1.1/"
   xmlns:cc="http://web.resource.org/cc/"
   xmlns:rdf="http://www.w3.org/1999/02/22-rdf-syntax-ns#"
   xmlns:svg="http://www.w3.org/2000/svg"
   xmlns="http://www.w3.org/2000/svg"
   xmlns:sodipodi="http://sodipodi.sourceforge.net/DTD/sodipodi-0.dtd"
   xmlns:inkscape="http://www.inkscape.org/namespaces/inkscape"
   width="134.00006"
   height="202"
   id="svg2"
   sodipodi:version="0.32"
   inkscape:version="0.45.1"
   version="1.0"
   sodipodi:docbase="/afs/cs.wisc.edu/u/s/b/sblanas/work/Courses/252IntroComp"
   sodipodi:docname="gates.svg"
   inkscape:output_extension="org.inkscape.output.svg.inkscape">
  <defs
     id="defs4" />
  <sodipodi:namedview
     id="base"
     pagecolor="#ffffff"
     bordercolor="#666666"
     borderopacity="1.0"
     gridtolerance="50"
     guidetolerance="10"
     objecttolerance="50"
     inkscape:pageopacity="0.0"
     inkscape:pageshadow="2"
     inkscape:zoom="3.7574257"
     inkscape:cx="24.289847"
     inkscape:cy="97.5456"
     inkscape:document-units="px"
     inkscape:current-layer="layer1"
     width="125px"
     height="202px"
     showgrid="false"
     gridspacingx="1px"
     gridspacingy="1px"
     gridanglex="30px"
     gridanglez="30px"
     grid_units="px"
     inkscape:grid-points="false"
     showguides="true"
     inkscape:guide-bbox="true"
     inkscape:grid-bbox="false"
     inkscape:window-width="1280"
     inkscape:window-height="975"
     inkscape:window-x="0"
     inkscape:window-y="0"
     inkscape:object-nodes="false"
     inkscape:object-paths="true" />
  <metadata
     id="metadata7">
    <rdf:RDF>
      <cc:Work
         rdf:about="">
        <dc:format>image/svg+xml</dc:format>
        <dc:type
           rdf:resource="http://purl.org/dc/dcmitype/StillImage" />
      </cc:Work>
    </rdf:RDF>
  </metadata>
  <g
     inkscape:label="Layer 1"
     inkscape:groupmode="layer"
     id="layer1"
     style="display:inline"
     transform="translate(-15.5,-17.594481)">
    <path
       sodipodi:type="arc"
       style="opacity:1;fill:none;fill-opacity:1;stroke:#000000;stroke-width:2.20970893;stroke-linecap:square;stroke-miterlimit:4;stroke-dasharray:none;stroke-dashoffset:0;stroke-opacity:1"
       id="path16055"
       sodipodi:cx="73.892662"
       sodipodi:cy="44.058769"
       sodipodi:rx="4.4194174"
       sodipodi:ry="4.4194174"
       d="M 78.312079 44.058769 A 4.4194174 4.4194174 0 1 1  69.473245,44.058769 A 4.4194174 4.4194174 0 1 1  78.312079 44.058769 z"
       transform="matrix(0.4525483,0,0,0.4525483,63.560001,188.15576)" />
    <path
       style="fill:none;fill-rule:evenodd;stroke:#000000;stroke-width:1px;stroke-linecap:butt;stroke-linejoin:miter;stroke-opacity:1"
       d="M 118.99969,208.09448 L 127.99975,208.09448"
       id="path2183" />
    <path
       id="path10208"
       style="fill:none;fill-opacity:1;stroke:#000000;stroke-width:1;stroke-linecap:square;stroke-miterlimit:4;stroke-dashoffset:0;stroke-opacity:1"
       d="M 114,44.09448 C 106.824,44.09448 95,44.094482 95,44.094482 L 95,18.095909 L 114,18.094481 C 121.176,18.094481 127,23.91848 127,31.09448 C 127,38.270481 121.176,44.09448 114,44.09448 z M 131,31.094482 C 131,32.198482 130.104,33.094482 129,33.094482 C 127.896,33.094482 127,32.198482 127,31.094482 C 127,29.990482 127.896,29.094482 129,29.094482 C 130.104,29.094482 131,29.990482 131,31.094482 z M 130.9997,31.094481 L 139.99976,31.094481 M 86,24.594478 L 95.00006,24.594478 M 86,37.594476 L 95.00006,37.594476" />
    <path
       id="path10206"
       style="fill:none;fill-opacity:1;stroke:#000000;stroke-width:1;stroke-linecap:square;stroke-miterlimit:4;stroke-dashoffset:0;stroke-opacity:1;display:inline"
       d="M 95,77.094482 L 95,77.156982 C 97.19873,80.972154 98.46875,85.377694 98.46875,90.094482 C 98.46875,94.81127 97.19873,99.21681 95,103.03199 L 95,103.09449 L 98.46875,103.09449 L 108.46875,103.09449 C 118.07946,103.09449 126.46882,97.855186 130.96875,90.094482 C 126.46882,82.333779 118.07946,77.094483 108.46875,77.094482 L 98.46875,77.094482 L 95,77.094482 z M 135,90.094848 C 135,91.198848 134.104,92.094848 133,92.094848 C 131.896,92.094848 131,91.198848 131,90.094848 C 131,88.990848 131.896,88.094848 133,88.094848 C 134.104,88.094848 135,88.990848 135,90.094848 z M 134.99973,90.094481 L 144.00032,90.094481 M 88.5,83.594487 L 97.50006,83.594487 M 88.5,96.594485 L 97.50006,96.594485" />
    <path
       id="path10210"
       style="fill:none;fill-opacity:1;stroke:#000000;stroke-width:1;stroke-linecap:square;stroke-miterlimit:4;stroke-dashoffset:0;stroke-opacity:1;display:inline"
       d="M 100,136.09448 L 100,136.15698 C 102.19873,139.97215 103.46875,144.37769 103.46875,149.09448 C 103.46875,153.81127 102.19873,158.21681 100,162.03198 L 100,162.09448 L 103.46875,162.09448 L 113.46875,162.09448 C 123.07946,162.09448 131.46882,156.85518 135.96875,149.09448 C 131.46882,141.33378 123.07946,136.09448 113.46875,136.09448 L 103.46875,136.09448 L 100,136.09448 z M 95,136.15698 C 97.19873,139.97215 98.46875,144.37769 98.46875,149.09448 C 98.46875,153.81127 97.19873,158.21681 95,162.03198 M 140,149.09521 C 140,150.19921 139.104,151.09521 138,151.09521 C 136.896,151.09521 136,150.19921 136,149.09521 C 136,147.99121 136.896,147.09521 138,147.09521 C 139.104,147.09521 140,147.99121 140,149.09521 z M 140,149.0945 L 149.00006,149.0945 M 88.5,142.59448 L 97.50006,142.59448 M 88.5,155.59448 L 97.50006,155.59448" />
    <path
       id="path10179"
       style="fill:none;fill-opacity:1;stroke:#000000;stroke-width:1;stroke-linecap:square;stroke-miterlimit:4;stroke-dashoffset:0;stroke-opacity:1;display:inline"
       d="M 30,136.09446 L 30,136.15696 C 32.198731,139.97213 33.46875,144.37767 33.46875,149.09446 C 33.46875,153.81125 32.198731,158.21679 30,162.03196 L 30,162.09446 L 33.46875,162.09446 L 43.46875,162.09446 C 53.079465,162.09446 61.468823,156.85516 65.96875,149.09446 C 61.468824,141.33376 53.079464,136.09446 43.46875,136.09446 L 33.46875,136.09446 L 30,136.09446 z M 25,136.15696 C 27.198731,139.97213 28.46875,144.37767 28.46875,149.09446 C 28.46875,153.81125 27.198731,158.21679 25,162.03196 M 65.999971,149.09448 L 75.000027,149.09448 M 18.5,142.59446 L 27.50006,142.59446 M 18.5,155.59446 L 27.50006,155.59446" />
    <path
       id="rect9115"
       style="fill:none;fill-opacity:1;stroke:#000000;stroke-width:1;stroke-linecap:square;stroke-miterlimit:4;stroke-dashoffset:0;stroke-opacity:1;display:inline"
       d="M 25,77.094505 L 25,77.157005 C 27.198731,80.972177 28.46875,85.377717 28.46875,90.094505 C 28.46875,94.811293 27.198731,99.216833 25,103.03202 L 25,103.09452 L 28.46875,103.09452 L 38.46875,103.09452 C 48.079465,103.09452 56.468823,97.855209 60.96875,90.094505 C 56.468824,82.333802 48.079464,77.094506 38.46875,77.094505 L 28.46875,77.094505 L 25,77.094505 z M 60.999719,90.094512 L 70.000279,90.094512 M 18.5,83.594514 L 27.50006,83.594514 M 18.5,96.594512 L 27.50006,96.594512" />
    <path
       id="path6087"
       style="fill:none;fill-opacity:1;stroke:#000000;stroke-width:1;stroke-linecap:square;stroke-miterlimit:4;stroke-dashoffset:0;stroke-opacity:1"
       d="M 44.000001,44.094484 C 36.824001,44.094484 25,44.094486 25,44.094486 L 25,18.095913 L 44.000001,18.094485 C 51.176001,18.094485 57.000001,23.918484 57.000001,31.094484 C 57.000001,38.270485 51.176001,44.094484 44.000001,44.094484 z M 57,31.094485 L 66.056394,31.094485 M 16,24.594486 L 25.00006,24.594486 M 16,37.594484 L 25.00006,37.594484" />
    <path
       id="path12162"
       style="fill:none;fill-opacity:1;stroke:#000000;stroke-width:1;stroke-linecap:square;stroke-miterlimit:4;stroke-dashoffset:0;stroke-opacity:1"
       d="M 48.499947,208.09448 C 48.499947,209.19848 47.603947,210.09448 46.499948,210.09448 C 45.395948,210.09448 44.499948,209.19848 44.499948,208.09448 C 44.499948,206.99048 45.395948,206.09448 46.499948,206.09448 C 47.603947,206.09448 48.499947,206.99048 48.499947,208.09448 z M 25,219.09448 L 25,197.09448 L 43.985582,208.09448 L 25,219.09448 z M 48.5,208.09448 L 57.50006,208.09448 M 16,208.09448 L 25.00006,208.09448" />
  </g>
</svg>
