<?xml version="1.0" encoding="UTF-8" standalone="no"?>
<!-- Created with Inkscape (http://www.inkscape.org/) -->

<svg
   xmlns:dc="http://purl.org/dc/elements/1.1/"
   xmlns:cc="http://creativecommons.org/ns#"
   xmlns:rdf="http://www.w3.org/1999/02/22-rdf-syntax-ns#"
   xmlns:svg="http://www.w3.org/2000/svg"
   xmlns="http://www.w3.org/2000/svg"
   xmlns:sodipodi="http://sodipodi.sourceforge.net/DTD/sodipodi-0.dtd"
   xmlns:inkscape="http://www.inkscape.org/namespaces/inkscape"
   width="102.52351mm"
   height="67.066299mm"
   viewBox="0 0 102.5235 67.066299"
   version="1.1"
   id="svg3788"
   inkscape:version="0.92.0 r15299"
   sodipodi:docname="or-gate.svg">
  <defs
     id="defs3782" />
  <sodipodi:namedview
     id="base"
     pagecolor="#ffffff"
     bordercolor="#666666"
     borderopacity="1.0"
     inkscape:pageopacity="0.0"
     inkscape:pageshadow="2"
     inkscape:zoom="5.6"
     inkscape:cx="233.01154"
     inkscape:cy="144.4007"
     inkscape:document-units="mm"
     inkscape:current-layer="layer1"
     showgrid="false"
     inkscape:snap-grids="true"
     inkscape:snap-page="false"
     inkscape:window-width="2560"
     inkscape:window-height="1017"
     inkscape:window-x="-5"
     inkscape:window-y="-5"
     inkscape:window-maximized="1"
     fit-margin-top="0"
     fit-margin-left="0"
     fit-margin-right="0"
     fit-margin-bottom="0"
     inkscape:pagecheckerboard="true"
     showguides="false" />
  <metadata
     id="metadata3785">
    <rdf:RDF>
      <cc:Work
         rdf:about="">
        <dc:format>image/svg+xml</dc:format>
        <dc:type
           rdf:resource="http://purl.org/dc/dcmitype/StillImage" />
        <dc:title />
      </cc:Work>
    </rdf:RDF>
  </metadata>
  <g
     inkscape:label="Layer 1"
     inkscape:groupmode="layer"
     id="layer1"
     transform="translate(-18.978904,-151.65091)">
    <path
       id="path10208-86"
       style="display:inline;fill:none;fill-opacity:1;stroke:#000000;stroke-width:0.9466083;stroke-linecap:square;stroke-miterlimit:4;stroke-dashoffset:0;stroke-opacity:1"
       d="M 45.457441,176.73569 H 27.471897 v -24.61048 l 17.985544,-0.001 c 6.79287,0 12.30592,5.51303 12.30592,12.30591 0,6.79284 -5.51305,12.30592 -12.30592,12.30592 z m 16.09235,-12.30592 c 0,1.04506 -0.84817,1.89323 -1.89321,1.89323 -1.04506,0 -1.89322,-0.84817 -1.89322,-1.89323 0,-1.04503 0.84816,-1.8932 1.89322,-1.8932 1.04504,0 1.89321,0.84817 1.89321,1.8932 z m -2.6e-4,0 h 8.51955 m -49.878057,-6.14484 7.280937,-0.008 m -7.450355,12.30589 h 7.450355"
       inkscape:connector-curvature="0"
       sodipodi:nodetypes="ccccsccssssscccccc" />
    <path
       id="path10208-6"
       style="display:inline;fill:none;fill-opacity:1;stroke:#000000;stroke-width:0.9466083;stroke-linecap:square;stroke-miterlimit:4;stroke-dashoffset:0;stroke-opacity:1"
       d="m 96.417518,197.84014 c -6.7929,0 -17.98557,0 -17.98557,0 v -24.6105 l 17.98557,-10e-4 c 6.792852,0 12.305902,5.51304 12.305902,12.30591 0,6.79284 -5.51305,12.30592 -12.305902,12.30592 z m 16.092342,-12.30592 c 0,1.04505 -0.84815,1.89319 -1.89327,1.89319 -1.04503,0 -1.89317,-0.84814 -1.89317,-1.89319 0,-1.04504 0.84814,-1.89321 1.89317,-1.89321 1.04512,0 1.89327,0.84817 1.89327,1.89321 z m -2.6e-4,0 h 8.51951 m -51.116622,-6.15294 h 8.51954 m -8.51954,12.30588 h 8.51954"
       inkscape:connector-curvature="0" />
    <text
       xml:space="preserve"
       style="font-style:normal;font-weight:normal;font-size:2.70666838px;line-height:1.69166791px;font-family:sans-serif;letter-spacing:0px;word-spacing:0px;fill:#000000;fill-opacity:1;stroke:none;stroke-width:0.06766672"
       x="20.819925"
       y="157.18187"
       id="text92"><tspan
         sodipodi:role="line"
         id="tspan90"
         x="20.819925"
         y="157.18187"
         style="font-size:5.96663523px;stroke-width:0.06766672">A</tspan></text>
    <path
       id="path10208-86-7"
       style="display:inline;fill:none;fill-opacity:1;stroke:#000000;stroke-width:0.94660836;stroke-linecap:square;stroke-miterlimit:4;stroke-dashoffset:0;stroke-opacity:1"
       d="M 44.968346,218.24355 H 26.982802 v -24.61048 l 17.985544,-0.001 c 6.79287,0 12.30592,5.51303 12.30592,12.30591 0,6.79284 -5.51305,12.30592 -12.30592,12.30592 z m 16.09235,-12.30592 c 0,1.04506 -0.84817,1.89323 -1.89321,1.89323 -1.04506,0 -1.89322,-0.84817 -1.89322,-1.89323 0,-1.04503 0.84816,-1.8932 1.89322,-1.8932 1.04504,0 1.89321,0.84817 1.89321,1.8932 z m -2.6e-4,0 h 8.51955 m -50.124819,-6.1057 7.527699,-0.0472 m -7.460169,12.37271 7.460169,-0.0668"
       inkscape:connector-curvature="0"
       sodipodi:nodetypes="ccccsccssssscccccs" />
    <path
       style="fill:none;stroke:#000000;stroke-width:1;stroke-linecap:butt;stroke-linejoin:miter;stroke-miterlimit:4;stroke-dasharray:none;stroke-opacity:1"
       d="m 70.069081,164.42977 c -0.156593,14.95151 -0.156593,14.95151 -0.156593,14.95151"
       id="path4047"
       inkscape:connector-curvature="0" />
    <path
       style="fill:none;stroke:#000000;stroke-width:0.9892205;stroke-linecap:butt;stroke-linejoin:miter;stroke-miterlimit:4;stroke-dasharray:none;stroke-opacity:1"
       d="m 69.912272,191.68589 c -0.156725,14.61873 -0.156725,14.61873 -0.156725,14.61873"
       id="path4047-1"
       inkscape:connector-curvature="0" />
    <text
       xml:space="preserve"
       style="font-style:normal;font-weight:normal;font-size:2.70666838px;line-height:1.69166791px;font-family:sans-serif;letter-spacing:0px;word-spacing:0px;fill:#000000;fill-opacity:1;stroke:none;stroke-width:0.06766672"
       x="20.906361"
       y="169.42375"
       id="text92-8"><tspan
         sodipodi:role="line"
         id="tspan90-3"
         x="20.906361"
         y="169.42375"
         style="font-size:5.96663523px;stroke-width:0.06766672">A</tspan></text>
    <text
       xml:space="preserve"
       style="font-style:normal;font-weight:normal;font-size:2.70666838px;line-height:1.69166791px;font-family:sans-serif;letter-spacing:0px;word-spacing:0px;fill:#000000;fill-opacity:1;stroke:none;stroke-width:0.06766672"
       x="20.415613"
       y="198.575"
       id="text92-4"><tspan
         sodipodi:role="line"
         id="tspan90-0"
         x="20.415613"
         y="198.575"
         style="font-size:5.96663523px;stroke-width:0.06766672">B</tspan></text>
    <text
       xml:space="preserve"
       style="font-style:normal;font-weight:normal;font-size:10.58333302px;line-height:6.61458302px;font-family:sans-serif;letter-spacing:0px;word-spacing:0px;fill:#000000;fill-opacity:1;stroke:none;stroke-width:0.26458332"
       x="22.880213"
       y="191.86441"
       id="text149"><tspan
         sodipodi:role="line"
         id="tspan147"
         x="22.880213"
         y="191.86441"
         style="stroke-width:0.26458332"> </tspan></text>
    <text
       xml:space="preserve"
       style="font-style:normal;font-weight:normal;font-size:2.70666838px;line-height:1.69166791px;font-family:sans-serif;letter-spacing:0px;word-spacing:0px;fill:#000000;fill-opacity:1;stroke:none;stroke-width:0.06766672"
       x="20.421247"
       y="211.00095"
       id="text92-4-3"><tspan
         sodipodi:role="line"
         id="tspan90-0-7"
         x="20.421247"
         y="211.00095"
         style="font-size:5.96663523px;stroke-width:0.06766672">B</tspan></text>
    <text
       xml:space="preserve"
       style="font-style:normal;font-weight:normal;font-size:2.70666838px;line-height:1.69166791px;font-family:sans-serif;letter-spacing:0px;word-spacing:0px;fill:#000000;fill-opacity:1;stroke:none;stroke-width:0.06766672"
       x="115.07725"
       y="184.03938"
       id="text92-4-4"><tspan
         sodipodi:role="line"
         id="tspan90-0-9"
         x="115.07725"
         y="184.03938"
         style="font-size:5.96663523px;stroke-width:0.06766672">Y</tspan></text>
  </g>
</svg>
