<?xml version="1.0" encoding="UTF-8" standalone="no"?>
<svg viewBox="0 0 422.12238 468.65384" xmlns="http://www.w3.org/2000/svg">
<defs>
<filter id="filter6007">
<feFlood flood-opacity=".49804" result="flood"/>
<feComposite in="flood" in2="SourceGraphic" operator="in" result="composite1"/>
<feGaussianBlur in="composite1" result="blur" stdDeviation="9.72973"/>
<feOffset dx="6" dy="6" result="offset"/>
<feComposite in="SourceGraphic" in2="offset" operator="over" result="composite2"/>
</filter>
</defs>
<g transform="translate(427.54303,-862.20234)">
<path d="m-398.03125,872.6875c-7.17085,9.54937-11.40625,21.41989-11.40625,34.28125 0,13.98352 5.00777,26.78431 13.34375,36.71875l35.34375,42.125c10.47731,12.4864 26.20565,20.4375 43.78125,20.4375l-35.34375-42.125c-7.30118,0-14.27023-1.40933-20.6875-3.90625-.70946-3.59844-1.09375-7.31866-1.09375-11.125 0-12.86136 4.2354-24.73188 11.40625-34.28125l-35.34375-42.125z" fill="#333" filter="url(#filter6007)" stroke="#fff" stroke-width=".5" transform="matrix(.99861,-.05264,.05264,.99861,-54.32189,-11.63269)"/>
<path d="m-316.974,1006.2502c31.55913,0 57.15625-25.5972 57.15625-57.1563l-35.35332-42.13244c0,31.5591-25.59712,57.15634-57.15625,57.15634z" fill="#333" filter="url(#filter6007)" stroke="#fff" stroke-width=".5" transform="matrix(.99861,-.05264,.05264,.99861,-54.32189,-11.63269)"/>
<path d="m-259.81775,949.0939c0-12.86136-4.26665-24.73188-11.4375-34.28125l-35.35332-42.13244c7.17085,9.54937 11.4375,21.41989 11.4375,34.28125z" fill="#333" filter="url(#filter6007)" stroke="#fff" stroke-width=".5" transform="matrix(.99861,-.05264,.05264,.99861,-54.32189,-11.63269)"/>
<path d="m-271.25525,914.81265h-91.4375l-35.35332-42.13244h91.4375z" fill="#333" filter="url(#filter6007)" stroke="#fff" stroke-width=".5" transform="matrix(.99861,-.05264,.05264,.99861,-54.32189,-11.63269)"/>
<path d="m-362.69275,914.81265c-7.17085,9.54937-11.40625,21.41989-11.40625,34.28125 0,31.5591 25.56587,57.1563 57.125,57.1563s57.15625-25.5972 57.15625-57.1563c0-12.86136-4.26665-24.73188-11.4375-34.28125h-91.4375z" fill="#333" filter="url(#filter6007)" stroke="#fff" stroke-width=".5" transform="matrix(.99861,-.05264,.05264,.99861,-54.32189,-11.63269)"/>
<g filter="url(#filter6007)" transform="matrix(.97802,-.20852,.20852,.97802,-203.93979,-118.16696)">
<g transform="matrix(.97802,.20852,-.20852,.97802,174.81597,158.09568)">
<g fill="#ccc" stroke="#000" stroke-width="1.5">
<path d="m-285.34375,952.125-8.53125,7.09375 5.19615,3 8.53125-7.09375z"/>
<path d="m-293.875,959.21875 242.25,291.84375 5.19615,3-242.25-291.84375z"/>
<path d="m-51.625,1251.0625 11.9375-7.75 5.19615,3-11.9375,7.75z"/>
<path d="m-39.6875,1243.3125-240.25-289.4375 5.19615,3 240.25,289.4375z"/>
<path d="m-279.9375,953.875-2.34375,1.9375 5.19615,3 2.34375-1.9375z"/>
<path d="m-282.28125,955.8125-3.0625-3.6875 5.19615,3 3.0625,3.6875z"/>
</g>
<path d="m-285.34375,952.125-8.53125,7.09375 242.25,291.84375 11.9375-7.75-240.25-289.4375-2.34375,1.9375-3.0625-3.6875z" fill="#ccc" stroke="#000" stroke-width="1.5"/>
</g>
</g>
<g filter="url(#filter6007)" transform="matrix(.97802,-.20852,.20852,.97802,-238.33019,-118.16696)">
<g transform="matrix(.97802,.20852,-.20852,.97802,174.81597,158.09568)">
<g fill="#ccc" stroke="#000" stroke-width="1.5">
<path d="m-285.34375,952.125-8.53125,7.09375 5.19615,3 8.53125-7.09375z"/>
<path d="m-293.875,959.21875 242.25,291.84375 5.19615,3-242.25-291.84375z"/>
<path d="m-51.625,1251.0625 11.9375-7.75 5.19615,3-11.9375,7.75z"/>
<path d="m-39.6875,1243.3125-240.25-289.4375 5.19615,3 240.25,289.4375z"/>
<path d="m-279.9375,953.875-2.34375,1.9375 5.19615,3 2.34375-1.9375z"/>
<path d="m-282.28125,955.8125-3.0625-3.6875 5.19615,3 3.0625,3.6875z"/>
</g>
<path d="m-285.34375,952.125-8.53125,7.09375 242.25,291.84375 11.9375-7.75-240.25-289.4375-2.34375,1.9375-3.0625-3.6875z" fill="#ccc" stroke="#000" stroke-width="1.5"/>
</g>
</g>
<g filter="url(#filter6007)" transform="matrix(.97802,-.20852,.20852,.97802,-268.38089,-118.16696)">
<g transform="matrix(.97802,.20852,-.20852,.97802,170.57168,157.19075)">
<g fill="#ccc" stroke="#000" stroke-width="1.5">
<path d="m-285.34375,952.125-8.53125,7.09375 5.19615,3 8.53125-7.09375z"/>
<path d="m-293.875,959.21875 242.25,291.84375 5.19615,3-242.25-291.84375z"/>
<path d="m-51.625,1251.0625 11.9375-7.75 5.19615,3-11.9375,7.75z"/>
<path d="m-39.6875,1243.3125-240.25-289.4375 5.19615,3 240.25,289.4375z"/>
<path d="m-279.9375,953.875-2.34375,1.9375 5.19615,3 2.34375-1.9375z"/>
<path d="m-282.28125,955.8125-3.0625-3.6875 5.19615,3 3.0625,3.6875z"/>
</g>
<path d="m-285.34375,952.125-8.53125,7.09375 242.25,291.84375 11.9375-7.75-240.25-289.4375-2.34375,1.9375-3.0625-3.6875z" fill="#ccc" stroke="#000" stroke-width="1.5"/>
</g>
</g>
<path d="m-359.87593,903.94514c-.49488-.52554-.95632-.93372-1.38431-1.22455s-.86183-.50608-1.30173-.64591c-.27315-.0912-.57216-.13412-.89699-.12843-.32648-.002-.75433.008-1.28365.0308l-.54782.0235 4.01293,4.26141 .15884-.007c.77284-.0323 1.30048-.0627 1.58282-.0902s.48665-.14367.61471-.34667c.1122-.17894.0785-.43094-.10095-.75597s-.46571-.70495-.853-1.11623l-.0008-.00084m-7.25533-6.88047c-.25822-.2742-.57389-.55389-.947-.83906s-.71592-.48846-1.04429-.60923c-.31063-.11363-.60447-.16848-.88162-.1647s-.68346.005-1.21301.0276l-.20641.009 3.38891,3.59874 .37318-.0153c.5082-.0213.85581-.0439 1.04288-.0673s.3288-.11257.40929-.26673c.0876-.17001.0437-.39782-.1317-.68341s-.43879-.61502-.79025-.98823l.0001.0001m10.38762,6.83138c.79614.84543 1.38426,1.59271 1.76435,2.24182s.5796,1.19118.59826,1.62598c.0287.52143-.12389.90005-.45772,1.13586s-.90307.3707-1.72357.40534l-4.73241.19975-16.01934-17.01127 4.1766-.17626c.86812-.0367 1.57114-.0147 2.10894.0652 .536.0724 1.14329.25264 1.82188.54073 .73189.30962 1.45928.73429 2.18217,1.27399 .72811.53941 1.42929,1.16711 2.1035,1.88307 .78181.83022 1.33194,1.57515 1.65038,2.23477s.37508,1.15227.15383,1.47841l.0862.0916c.93855.19008 1.95025.61858 3.03513,1.28552 1.07767.65929 2.16161,1.56778 3.25181,2.72551l-.00024-.00025m12.00682,5.2544c-1.77333.0749-3.90584-.63498-6.39746-2.12948-2.4988-1.50212-5.06433-3.65079-7.69658-6.44604-2.53898-2.69618-4.04017-4.86603-4.50356-6.50954-.46521-1.65127.18887-2.51432 1.96219-2.58918 .47112-.0202.93061.00049 1.3781.0607s.90795.15177 1.38107.27428c.3776.1029.81841.24661 1.32251.43123s.92215.3451 1.25431.48157l3.81929,4.05578-.30173.0121c-.31509-.1768-.69949-.38627-1.15321-.62844-.46087-.24978-.94368-.49071-1.44847-.72282s-1.00283-.42494-1.49418-.57848c-.49313-.1613-.91969-.23435-1.27965-.21915-.4288.0179-.7299.13373-.90336.34697-.17535.2054-.19857.55481-.0697,1.04823 .11239.44666.42116,1.04341.92681,1.79027s1.23911,1.62267 2.18579,2.62798c.99696,1.05869 1.93406,1.94567 2.81129,2.66098 .87008.70769 1.67193,1.27572 2.40553,1.70406 .70868.41356 1.34057.70758 1.89572.88215s1.02862.25359 1.40446.23774c.39176-.0168.67884-.12371.86132-.3215 .17535-.20541.2772-.42748.30558-.6662 .0423-.24731.0493-.49705.021-.74925s-.0581-.47669-.0892-.67337l.26996-.0112 3.76548,3.99865-.28098.5345c-.11368.19491-.26043.36345-.44026.50564-.21991.1756-.45188.31209-.6959.4095s-.64923.15806-1.21562.18197m8.42327-6.68693c.83202.88354 1.49715,1.70676 1.99544,2.46969s.80434,1.42715.90275,1.99315c.0964.55823-.001.99794-.29345,1.31908s-.84561.49893-1.67669.53402c-.8861.0288-1.7468-.0488-2.58285-.23536-.82357-.17904-1.56376-.38935-2.22054-.63093l-3.4965-3.71299 .26995-.0111 .88758.39021c.32872.14452.72284.2942 1.18237.44902 .43119.1481.8399.26944 1.22619.36403 .38442.0868.75389.1226 1.1085.10754 .30702-.0123.58769-.0802.84191-.20187 .24712-.12917.34291-.34307.28734-.64171-.0563-.23516-.17212-.49553-.34754-.78115s-.48543-.66452-.93015-1.13678c-.37292-.396-.75029-.73246-1.13212-1.00934s-.75071-.5108-1.10098-.67821c-.5138-.24752-.99357-.39754-1.43927-.45002-.45289-.0601-.81694-.0844-1.09204-.0724-.43415.0181-.81096.0856-1.13053.20219-.31438.1162-.56864.23779-.76278.36478l-.25406.0107-8.99411-9.55102 7.82915-.33049 3.02316,3.21036-5.02623.21212 2.66806,2.83327c.1448-.0215.3219-.041.5317-.0578 .20767-.025.37232-.0401.49412-.0451 .5664-.0241 1.1694.0378 1.80894.18505 .63236.13965 1.29514.37295 1.98841.70002 .84442.3999 1.72454.94878 2.64042,1.64665 .90861.69018 1.83989,1.54178 2.7938,2.55476l.00036.00038m5.10246-1.53395-5.45453-5.79227 2.46105,5.91863 2.99348-.12632m7.34569,2.87344-1.59598.0674 3.77625,4.01006-2.86645.12099-3.77624-4.01006-5.20091.2195-2.99082-3.17603-4.18973-10.08641 2.96173-.12506 9.40291,9.98513 1.59599-.0674 2.88324,3.06179m.85553-10.08547 7.80064,13.84201-3.30316.13938-7.71585-14.02377-5.63763.23799-3.02315-3.21036 8.69463-.36697 3.18454,3.38173m20.19784,13.66329c-1.77333.0749-3.90584-.635-6.39748-2.12951-2.49878-1.50209-5.06432-3.65078-7.69656-6.44602-2.53897-2.69617-4.04018-4.86603-4.50356-6.50954-.46523-1.65128.18886-2.51432 1.96217-2.58919 .47114-.0202.93062.00059 1.37805.0606s.90798.15179 1.38109.27429c.37759.10291.8184.24661 1.32251.43123s.92213.34509 1.25429.48156l3.81929,4.05578-.30172.0121c-.3151-.1768-.6995-.38629-1.1532-.62845-.46087-.24976-.94369-.49071-1.44847-.72283s-1.00284-.42492-1.49419-.57847c-.49313-.1613-.91968-.23435-1.27966-.21917-.42882.018-.72988.13377-.90337.347-.17532.20541-.19855.55481-.0697,1.04823 .11241.44666.42119,1.04341.92691,1.79026s1.23909,1.62266 2.1858,2.62799c.99694,1.05868 1.93403,1.94567 2.81127,2.66097 .87008.70769 1.67194,1.27574 2.40554,1.70407 .70867.41356 1.34055.70759 1.89572.88215s1.02862.2536 1.40446.23772c.39169-.0168.67882-.12371.86133-.32148 .17535-.20541.27719-.42748.30557-.6662 .0423-.2473.0493-.49706.0209-.74927s-.0581-.47668-.0892-.67335l.26996-.0112 3.76551,3.99866-.28098.53451c-.11369.19487-.26045.36343-.44027.50562-.2199.17561-.45187.3121-.69588.40951s-.64925.15806-1.21563.18197" fill="#fff"/><text font-family="Tahoma" font-size="32" font-weight="bold" letter-spacing="0" word-spacing="0" x="-120.26517" xml:space="preserve" y="1286.266"><tspan x="-120.26517" y="1286.266">1</tspan></text><text font-family="Tahoma" font-size="32" font-weight="bold" letter-spacing="0" word-spacing="0" x="-51.9375" xml:space="preserve" y="1286.6879"><tspan x="-51.9375" y="1286.6879">3</tspan></text><text font-family="Tahoma" font-size="32" font-weight="bold" letter-spacing="0" word-spacing="0" x="-86.90603" xml:space="preserve" y="1286.6566"><tspan x="-86.90603" y="1286.6566">2</tspan></text>
</g>
</svg>
